<svg width="105" height="79" viewBox="0 0 105 79" fill="none" xmlns="http://www.w3.org/2000/svg">
<path d="M64.1524 32.7794C64.3441 34.1172 63.3712 35.6462 61.283 37.0233C59.2306 38.3769 56.249 39.4732 52.8251 39.9638C49.4011 40.4544 46.2316 40.2395 43.8817 39.5167C41.4908 38.7813 40.1277 37.587 39.936 36.2493C39.7444 34.9115 40.7173 33.3826 42.8055 32.0054C44.8578 30.6518 47.8395 29.5555 51.2634 29.0649C54.6874 28.5743 57.8569 28.7893 60.2067 29.512C62.5976 30.2474 63.9608 31.4417 64.1524 32.7794Z" fill="#2F3040" stroke="#202020"/>
<ellipse cx="52.6272" cy="41.1286" rx="48.5402" ry="6.36593" transform="rotate(-6.74112 52.6272 41.1286)" fill="#473670"/>
<path d="M100.335 35.4894C100.355 35.6549 100.254 35.9677 99.6857 36.4342C99.1433 36.8797 98.2906 37.3671 97.1314 37.8824C94.82 38.91 91.4028 40.0001 87.1186 41.0852C78.5575 43.2535 66.6125 45.3823 53.3158 46.9539C40.019 48.5256 27.9069 49.2404 19.0761 49.1278C14.6571 49.0715 11.0799 48.8081 8.59257 48.3477C7.34522 48.1169 6.40235 47.8417 5.77101 47.535C5.10995 47.2138 4.93865 46.9331 4.91909 46.7677C4.89954 46.6022 5.00069 46.2894 5.56864 45.8229C6.11106 45.3774 6.9638 44.89 8.12296 44.3747C10.4344 43.3472 13.8516 42.257 18.1357 41.1719C26.6969 39.0036 38.6419 36.8749 51.9386 35.3032C65.2354 33.7315 77.3475 33.0167 86.1783 33.1293C90.5973 33.1856 94.1745 33.449 96.6618 33.9094C97.9092 34.1402 98.852 34.4154 99.4834 34.7221C100.144 35.0433 100.316 35.324 100.335 35.4894Z" stroke="#F2F2F2" stroke-opacity="0.2"/>
<path d="M67.2591 43.4548C67.3251 43.915 67.1494 44.448 66.6458 45.0422C66.1427 45.6357 65.3497 46.242 64.3014 46.8162C62.2081 47.9627 59.1938 48.9286 55.7572 49.421C52.3206 49.9134 49.1564 49.8328 46.8254 49.3203C45.658 49.0635 44.7266 48.7043 44.0771 48.2759C43.4269 47.8471 43.1087 47.3848 43.0427 46.9247C42.9768 46.4645 43.1524 45.9315 43.656 45.3373C44.1591 44.7438 44.9522 44.1375 46.0005 43.5633C48.0938 42.4168 51.108 41.4509 54.5447 40.9585C57.9813 40.4661 61.1455 40.5467 63.4765 41.0593C64.6439 41.316 65.5753 41.6752 66.2248 42.1036C66.875 42.5324 67.1932 42.9947 67.2591 43.4548Z" fill="#CCD6F6" stroke="black"/>
<path d="M36.1977 18.0207L32.5977 18.0207L32.5977 16.9887L36.1977 16.9887L36.1977 18.0207ZM34.2297 13.0046L34.5657 13.0046L31.9857 20.2887L30.7857 20.2887L33.7977 11.8886L34.9977 11.8886L38.0097 20.2887L36.8097 20.2887L34.2297 13.0046ZM40.3782 20.4087C39.9982 20.4087 39.6962 20.3407 39.4722 20.2047C39.2522 20.0647 39.0942 19.8867 38.9982 19.6707C38.9022 19.4547 38.8542 19.2287 38.8542 18.9927L38.8542 11.2886L39.9342 11.2886L39.9342 18.3687C39.9342 18.7047 39.9562 18.9567 40.0002 19.1247C40.0442 19.2927 40.1322 19.4047 40.2642 19.4607C40.4002 19.5167 40.6062 19.5447 40.8822 19.5447L40.7262 20.4087L40.3782 20.4087ZM44.5835 20.4087C43.8915 20.4087 43.3095 20.2667 42.8375 19.9827C42.3655 19.6987 42.0075 19.3227 41.7635 18.8547C41.5235 18.3827 41.4035 17.8647 41.4035 17.3007C41.4035 16.7527 41.5155 16.2507 41.7395 15.7947C41.9675 15.3387 42.2955 14.9747 42.7235 14.7027C43.1555 14.4267 43.6755 14.2887 44.2835 14.2887C44.7715 14.2887 45.2055 14.3867 45.5855 14.5827C45.9695 14.7747 46.2695 15.0567 46.4855 15.4287C46.7055 15.7967 46.8155 16.2447 46.8155 16.7727C46.8155 16.8567 46.8115 16.9487 46.8035 17.0487C46.7995 17.1447 46.7875 17.2447 46.7675 17.3487L42.5075 17.3487C42.5595 17.8927 42.6895 18.3167 42.8975 18.6207C43.1055 18.9247 43.3675 19.1387 43.6835 19.2627C43.9995 19.3867 44.3435 19.4487 44.7155 19.4487C44.9875 19.4487 45.2715 19.4207 45.5675 19.3647C45.8635 19.3087 46.1435 19.2207 46.4075 19.1007L46.5515 19.9527C46.3235 20.0527 46.0455 20.1547 45.7175 20.2587C45.3895 20.3587 45.0115 20.4087 44.5835 20.4087ZM42.6035 16.6047L45.6995 16.6047C45.6995 16.3287 45.6475 16.0887 45.5435 15.8847C45.4395 15.6807 45.2815 15.5247 45.0695 15.4167C44.8575 15.3047 44.5875 15.2487 44.2595 15.2487C43.7795 15.2487 43.4095 15.3687 43.1495 15.6087C42.8935 15.8447 42.7115 16.1767 42.6035 16.6047ZM47.3655 20.2887L49.4175 17.3607L47.4135 14.4087L48.6255 14.4087L50.1015 16.7367L51.4575 14.4087L52.7175 14.4087L50.7855 17.2647L52.7895 20.2887L51.5775 20.2887L50.0895 17.9727L48.5775 20.2887L47.3655 20.2887ZM61.1804 20.2887L58.0724 15.8367L61.1804 11.8887L62.5604 11.8887L59.3684 15.8127L62.5964 20.2887L61.1804 20.2887ZM56.8124 20.2887L56.8124 11.8887L57.9524 11.8887L57.9524 20.2887L56.8124 20.2887ZM63.2656 23.1927L64.6216 20.0247L62.1736 14.4087L63.3736 14.4087L65.2096 18.7767L66.8656 14.4087L68.0656 14.4087L64.4656 23.1927L63.2656 23.1927ZM70.6213 20.4087C70.1013 20.4087 69.6693 20.3467 69.3253 20.2227C68.9853 20.0987 68.7453 19.9887 68.6053 19.8927L68.7373 18.8487C68.8653 18.9607 69.0913 19.0887 69.4153 19.2327C69.7393 19.3767 70.1253 19.4487 70.5733 19.4487C70.9533 19.4487 71.2433 19.3847 71.4433 19.2567C71.6473 19.1287 71.7493 18.9487 71.7493 18.7167C71.7493 18.5127 71.6833 18.3487 71.5513 18.2247C71.4233 18.0967 71.2673 17.9967 71.0833 17.9247C70.9033 17.8487 70.7333 17.7887 70.5733 17.7447C70.3053 17.6727 70.0273 17.5827 69.7393 17.4747C69.4553 17.3627 69.2153 17.1967 69.0193 16.9767C68.8233 16.7567 68.7253 16.4487 68.7253 16.0527C68.7253 15.7527 68.7973 15.4687 68.9413 15.2007C69.0853 14.9287 69.3193 14.7087 69.6433 14.5407C69.9673 14.3727 70.3973 14.2887 70.9333 14.2887C71.3253 14.2887 71.6433 14.3307 71.8873 14.4147C72.1353 14.4947 72.3493 14.5807 72.5293 14.6727L72.3973 15.6567C72.2253 15.5127 72.0253 15.3907 71.7973 15.2907C71.5693 15.1907 71.2893 15.1407 70.9573 15.1407C70.6213 15.1407 70.3473 15.2047 70.1353 15.3327C69.9233 15.4567 69.8173 15.6567 69.8173 15.9327C69.8173 16.2087 69.9293 16.4047 70.1533 16.5207C70.3813 16.6367 70.7253 16.7647 71.1853 16.9047C71.3293 16.9447 71.4953 17.0027 71.6833 17.0787C71.8753 17.1547 72.0613 17.2567 72.2413 17.3847C72.4213 17.5127 72.5693 17.6807 72.6853 17.8887C72.8053 18.0927 72.8653 18.3487 72.8653 18.6567C72.8653 18.9167 72.8033 19.1827 72.6793 19.4547C72.5553 19.7227 72.3313 19.9487 72.0073 20.1327C71.6833 20.3167 71.2213 20.4087 70.6213 20.4087ZM74.0421 20.2887L74.0421 14.4087L75.1221 14.4087L75.1221 20.2887L74.0421 20.2887ZM74.0421 13.0887L74.0421 11.8887L75.1221 11.8887L75.1221 13.0887L74.0421 13.0887ZM78.2171 20.4087C77.8371 20.4087 77.5351 20.3407 77.3111 20.2047C77.0911 20.0647 76.9331 19.8867 76.8371 19.6707C76.7411 19.4547 76.6931 19.2287 76.6931 18.9927L76.6931 11.2887L77.7731 11.2887L77.7731 18.3687C77.7731 18.7047 77.7951 18.9567 77.8391 19.1247C77.8831 19.2927 77.9711 19.4047 78.1031 19.4607C78.2391 19.5167 78.4451 19.5447 78.7211 19.5447L78.5651 20.4087L78.2171 20.4087Z" fill="#A5A3F1"/>
<path d="M58.4361 47.9078L61.5996 47.0106L78.3537 60.8804L58.6314 72.2671L55.5775 49.8668L58.4361 47.9078Z" fill="url(#paint0_linear_608_106)"/>
<circle cx="58.2017" cy="47.7887" r="4.5" fill="#DF609D"/>
<circle cx="18.0005" cy="46" r="1" fill="#F7DF1E"/>
<circle cx="22.0005" cy="45" r="1" fill="#F7DF1E"/>
<circle cx="26.0005" cy="44" r="1" fill="#F7DF1E"/>
<defs>
<linearGradient id="paint0_linear_608_106" x1="57.8958" y1="48.2196" x2="68.4925" y2="66.5737" gradientUnits="userSpaceOnUse">
<stop offset="0.135" stop-color="#DF609D"/>
<stop offset="1" stop-color="#A3ABF1" stop-opacity="0"/>
</linearGradient>
</defs>
</svg>
