<svg width="100" height="35" viewBox="0 0 100 35" fill="none" xmlns="http://www.w3.org/2000/svg">
<path d="M62.1524 10.7795C62.3441 12.1172 61.3712 13.6462 59.283 15.0234C57.2306 16.3769 54.249 17.4732 50.8251 17.9638C47.4011 18.4544 44.2316 18.2395 41.8817 17.5167C39.4908 16.7813 38.1277 15.5871 37.936 14.2493C37.7444 12.9115 38.7173 11.3826 40.8055 10.0054C42.8578 8.65185 45.8395 7.55556 49.2634 7.06496C52.6874 6.57437 55.8569 6.78929 58.2067 7.51207C60.5976 8.24748 61.9608 9.44171 62.1524 10.7795Z" fill="#2F3040" stroke="#202020"/>
<ellipse cx="50.6277" cy="19.1286" rx="48.5402" ry="6.36593" transform="rotate(-6.74112 50.6277 19.1286)" fill="#473670"/>
<path d="M98.3358 13.4895C98.3553 13.6549 98.2542 13.9678 97.6862 14.4343C97.1438 14.8798 96.2911 15.3671 95.1319 15.8825C92.8205 16.91 89.4032 18.0002 85.1191 19.0852C76.558 21.2535 64.613 23.3823 51.3162 24.954C38.0195 26.5257 25.9074 27.2405 17.0766 27.1279C12.6576 27.0716 9.08035 26.8082 6.59306 26.3478C5.34571 26.1169 4.40283 25.8418 3.7715 25.535C3.11044 25.2138 2.93913 24.9332 2.91958 24.7677C2.90002 24.6023 3.00118 24.2894 3.56913 23.823C4.11155 23.3775 4.96429 22.8901 6.12344 22.3748C8.43487 21.3472 11.8521 20.2571 16.1362 19.172C24.6974 17.0037 36.6424 14.8749 49.9391 13.3032C63.2358 11.7316 75.348 11.0168 84.1787 11.1293C88.5978 11.1857 92.175 11.4491 94.6623 11.9094C95.9097 12.1403 96.8525 12.4154 97.4839 12.7222C98.1449 13.0434 98.3162 13.3241 98.3358 13.4895Z" stroke="#F2F2F2" stroke-opacity="0.2"/>
<path d="M65.2596 21.4549C65.3256 21.9151 65.1499 22.4481 64.6463 23.0422C64.1432 23.6358 63.3502 24.2421 62.3018 24.8163C60.2086 25.9628 57.1943 26.9286 53.7577 27.421C50.3211 27.9135 47.1569 27.8329 44.8259 27.3203C43.6585 27.0636 42.7271 26.7044 42.0776 26.276C41.4274 25.8472 41.1092 25.3849 41.0432 24.9247C40.9773 24.4646 41.1529 23.9315 41.6565 23.3374C42.1596 22.7439 42.9526 22.1376 44.001 21.5633C46.0943 20.4168 49.1085 19.451 52.5452 18.9586C55.9818 18.4662 59.146 18.5467 61.477 19.0593C62.6444 19.316 63.5757 19.6753 64.2253 20.1036C64.8755 20.5325 65.1937 20.9947 65.2596 21.4549Z" fill="#CCD6F6" stroke="black"/>
<circle cx="16.001" cy="24.0001" r="1" fill="#F7DF1E"/>
<circle cx="20.001" cy="23.0001" r="1" fill="#F7DF1E"/>
<circle cx="24.001" cy="22.0001" r="1" fill="#F7DF1E"/>
</svg>
