<svg width="118" height="24" viewBox="0 0 118 24" fill="none" xmlns="http://www.w3.org/2000/svg">
<path d="M2.97017 21.2678C2.3054 21.2678 1.73603 21.0339 1.26207 20.5661C0.794271 20.0982 0.563447 19.532 0.569602 18.8672C0.563447 18.2147 0.794271 17.6577 1.26207 17.196C1.73603 16.7282 2.3054 16.4943 2.97017 16.4943C3.59801 16.4943 4.15199 16.7282 4.6321 17.196C5.11837 17.6577 5.36458 18.2147 5.37074 18.8672C5.36458 19.3104 5.24763 19.7135 5.01989 20.0767C4.7983 20.4399 4.50592 20.7292 4.14276 20.9446C3.78575 21.16 3.39489 21.2678 2.97017 21.2678ZM17.1058 1.20454L11.0121 23.8438H7.16193L13.2557 1.20454H17.1058ZM22.8603 17.2791L22.8787 11.8963H23.5066L27.4952 6.81818H32.6103L26.6827 14.0938H25.4917L22.8603 17.2791ZM18.7885 21V2.09091H23.3034V21H18.7885ZM27.5968 21L23.8851 15.1094L26.8581 11.9055L32.8134 21H27.5968ZM34.226 21V6.81818H38.7409V21H34.226ZM36.4881 5.16548C35.8541 5.16548 35.3094 4.9562 34.8539 4.53764C34.3984 4.11293 34.1706 3.60204 34.1706 3.00497C34.1706 2.41406 34.3984 1.90933 34.8539 1.49077C35.3094 1.06605 35.8541 0.853692 36.4881 0.853692C37.1283 0.853692 37.673 1.06605 38.1223 1.49077C38.5778 1.90933 38.8056 2.41406 38.8056 3.00497C38.8056 3.60204 38.5778 4.11293 38.1223 4.53764C37.673 4.9562 37.1283 5.16548 36.4881 5.16548ZM53.9961 11.1484L49.8505 11.2592C49.8074 10.9638 49.6905 10.7022 49.4996 10.4744C49.3088 10.2405 49.0595 10.0589 48.7518 9.92969C48.4502 9.79427 48.0993 9.72656 47.6992 9.72656C47.176 9.72656 46.7298 9.8312 46.3604 10.0405C45.9973 10.2498 45.8188 10.5329 45.8249 10.8899C45.8188 11.1669 45.9296 11.407 46.1573 11.6101C46.3912 11.8132 46.8067 11.9763 47.4038 12.0994L50.1367 12.6165C51.5524 12.8873 52.605 13.3366 53.2944 13.9645C53.9899 14.5923 54.3408 15.4233 54.3469 16.4574C54.3408 17.4299 54.0515 18.2763 53.479 18.9964C52.9128 19.7166 52.1372 20.2768 51.1523 20.6768C50.1675 21.0708 49.0411 21.2678 47.7731 21.2678C45.748 21.2678 44.1507 20.8523 42.9812 20.0213C41.8178 19.1842 41.1531 18.0639 40.9869 16.6605L45.4464 16.5497C45.5449 17.0668 45.8003 17.4607 46.2127 17.7315C46.6251 18.0024 47.1514 18.1378 47.7915 18.1378C48.3701 18.1378 48.841 18.0301 49.2042 17.8146C49.5674 17.5992 49.752 17.313 49.7582 16.956C49.752 16.6359 49.6104 16.3804 49.3335 16.1896C49.0565 15.9927 48.6225 15.8388 48.0316 15.728L45.5572 15.2571C44.1353 14.9986 43.0766 14.5215 42.381 13.826C41.6855 13.1243 41.3408 12.2318 41.3469 11.1484C41.3408 10.2005 41.5932 9.3911 42.104 8.72017C42.6149 8.04309 43.3413 7.52604 44.283 7.16903C45.2248 6.81203 46.3358 6.63352 47.6161 6.63352C49.5366 6.63352 51.0508 7.0367 52.1587 7.84304C53.2667 8.64323 53.8791 9.74503 53.9961 11.1484ZM56.5698 21V6.81818H61.0847V21H56.5698ZM58.8319 5.16548C58.1979 5.16548 57.6531 4.9562 57.1976 4.53764C56.7421 4.11293 56.5144 3.60204 56.5144 3.00497C56.5144 2.41406 56.7421 1.90933 57.1976 1.49077C57.6531 1.06605 58.1979 0.853692 58.8319 0.853692C59.472 0.853692 60.0167 1.06605 60.4661 1.49077C60.9216 1.90933 61.1493 2.41406 61.1493 3.00497C61.1493 3.60204 60.9216 4.11293 60.4661 4.53764C60.0167 4.9562 59.472 5.16548 58.8319 5.16548ZM68.4734 2.09091V21H63.9585V2.09091H68.4734ZM76.5268 21.2031C75.4804 21.2031 74.5294 20.9323 73.6738 20.3906C72.8182 19.849 72.135 19.0365 71.6241 17.9531C71.1132 16.8698 70.8578 15.5249 70.8578 13.9183C70.8578 12.2502 71.1225 10.8776 71.6518 9.80043C72.1812 8.72325 72.8736 7.92614 73.7292 7.40909C74.591 6.89205 75.5173 6.63352 76.5083 6.63352C77.2531 6.63352 77.8902 6.76278 78.4196 7.02131C78.9489 7.27367 79.3859 7.59991 79.7306 8C80.0753 8.40009 80.3369 8.81558 80.5154 9.24645H80.6078V2.09091H85.1227V21H80.6539V18.701H80.5154C80.3246 19.138 80.0538 19.5473 79.7029 19.929C79.3521 20.3106 78.912 20.6184 78.3826 20.8523C77.8594 21.0862 77.2408 21.2031 76.5268 21.2031ZM78.0964 17.6854C78.6442 17.6854 79.112 17.5315 79.4998 17.2237C79.8876 16.9098 80.1861 16.4697 80.3954 15.9034C80.6047 15.3371 80.7093 14.6723 80.7093 13.9091C80.7093 13.1335 80.6047 12.4657 80.3954 11.9055C80.1923 11.3454 79.8938 10.9145 79.4998 10.6129C79.112 10.3113 78.6442 10.1605 78.0964 10.1605C77.5363 10.1605 77.0623 10.3144 76.6745 10.6222C76.2868 10.9299 75.9913 11.3639 75.7882 11.924C75.5912 12.4841 75.4927 13.1458 75.4927 13.9091C75.4927 14.6723 75.5943 15.3371 75.7974 15.9034C76.0005 16.4697 76.2929 16.9098 76.6745 17.2237C77.0623 17.5315 77.5363 17.6854 78.0964 17.6854ZM94.6072 21.2678C93.1238 21.2678 91.8435 20.9754 90.7663 20.3906C89.6953 19.7997 88.8705 18.9595 88.2919 17.87C87.7195 16.7744 87.4332 15.4725 87.4332 13.9645C87.4332 12.4995 87.7225 11.2192 88.3011 10.1236C88.8797 9.02178 89.6953 8.16619 90.7479 7.55682C91.8004 6.94129 93.0407 6.63352 94.4688 6.63352C95.4782 6.63352 96.4015 6.79048 97.2386 7.1044C98.0758 7.41832 98.799 7.88305 99.4084 8.49858C100.018 9.11411 100.492 9.87429 100.83 10.7791C101.169 11.6778 101.338 12.7088 101.338 13.8722V14.9986H89.0121V12.3764H97.1371C97.1309 11.8963 97.017 11.4685 96.7955 11.093C96.5739 10.7176 96.2692 10.4252 95.8814 10.2159C95.4998 10.0005 95.0597 9.89276 94.5611 9.89276C94.0563 9.89276 93.6039 10.0066 93.2038 10.2344C92.8037 10.456 92.4867 10.7607 92.2528 11.1484C92.0189 11.5301 91.8958 11.964 91.8835 12.4503V15.1186C91.8835 15.6972 91.9974 16.205 92.2251 16.642C92.4529 17.0729 92.776 17.4084 93.1946 17.6484C93.6132 17.8885 94.1117 18.0085 94.6903 18.0085C95.0904 18.0085 95.4536 17.9531 95.7798 17.8423C96.1061 17.7315 96.3861 17.5684 96.62 17.353C96.8539 17.1375 97.0294 16.8729 97.1463 16.5589L101.292 16.679C101.12 17.6084 100.741 18.4179 100.156 19.1072C99.5777 19.7905 98.8175 20.3229 97.8757 20.7045C96.9339 21.08 95.8445 21.2678 94.6072 21.2678ZM117.02 6.81818L112.154 21H106.984L102.127 6.81818H106.882L109.495 16.5866H109.643L112.265 6.81818H117.02Z" fill="url(#paint0_linear_83_172)"/>
<defs>
<linearGradient id="paint0_linear_83_172" x1="-1" y1="11.5" x2="118" y2="11.5" gradientUnits="userSpaceOnUse">
<stop stop-color="#4C5EFE"/>
<stop offset="1" stop-color="#DF60BB"/>
</linearGradient>
</defs>
</svg>
