<svg width="542" height="403" viewBox="0 0 542 403" fill="none" xmlns="http://www.w3.org/2000/svg">
<path d="M245.152 32.7795C245.344 34.1172 244.371 35.6462 242.283 37.0234C240.231 38.3769 237.249 39.4732 233.825 39.9638C230.401 40.4544 227.232 40.2395 224.882 39.5167C222.491 38.7813 221.128 37.5871 220.936 36.2493C220.744 34.9115 221.717 33.3826 223.805 32.0054C225.858 30.6519 228.839 29.5556 232.263 29.065C235.687 28.5744 238.857 28.7893 241.207 29.5121C243.598 30.2475 244.961 31.4417 245.152 32.7795Z" fill="#2F3040" stroke="#202020"/>
<ellipse cx="233.627" cy="41.1286" rx="48.5402" ry="6.36593" transform="rotate(-6.74112 233.627 41.1286)" fill="#473670"/>
<path d="M281.335 35.4894C281.355 35.6549 281.254 35.9677 280.686 36.4342C280.143 36.8797 279.291 37.3671 278.131 37.8824C275.82 38.91 272.403 40.0001 268.119 41.0852C259.557 43.2535 247.612 45.3823 234.316 46.9539C221.019 48.5256 208.907 49.2404 200.076 49.1278C195.657 49.0715 192.08 48.8081 189.593 48.3477C188.345 48.1169 187.402 47.8417 186.771 47.535C186.11 47.2138 185.939 46.9331 185.919 46.7677C185.9 46.6022 186.001 46.2894 186.569 45.8229C187.111 45.3774 187.964 44.89 189.123 44.3747C191.434 43.3472 194.852 42.257 199.136 41.1719C207.697 39.0036 219.642 36.8749 232.939 35.3032C246.235 33.7315 258.347 33.0167 267.178 33.1293C271.597 33.1856 275.175 33.449 277.662 33.9094C278.909 34.1402 279.852 34.4154 280.483 34.7221C281.144 35.0433 281.316 35.324 281.335 35.4894Z" stroke="#F2F2F2" stroke-opacity="0.2"/>
<path d="M248.259 43.4549C248.325 43.9151 248.149 44.4481 247.646 45.0422C247.143 45.6358 246.35 46.2421 245.301 46.8163C243.208 47.9628 240.194 48.9286 236.757 49.421C233.321 49.9135 230.156 49.8329 227.825 49.3203C226.658 49.0636 225.727 48.7044 225.077 48.276C224.427 47.8472 224.109 47.3849 224.043 46.9247C223.977 46.4646 224.152 45.9315 224.656 45.3374C225.159 44.7439 225.952 44.1376 227.001 43.5633C229.094 42.4168 232.108 41.451 235.545 40.9586C238.981 40.4662 242.145 40.5467 244.476 41.0593C245.644 41.316 246.575 41.6753 247.225 42.1036C247.875 42.5325 248.193 42.9947 248.259 43.4549Z" fill="#CCD6F6" stroke="black"/>
<path d="M217.198 18.0207L213.598 18.0207L213.598 16.9887L217.198 16.9887L217.198 18.0207ZM215.23 13.0047L215.566 13.0047L212.986 20.2887L211.786 20.2887L214.798 11.8887L215.998 11.8887L219.01 20.2887L217.81 20.2887L215.23 13.0047ZM221.378 20.4087C220.998 20.4087 220.696 20.3407 220.472 20.2047C220.252 20.0647 220.094 19.8867 219.998 19.6707C219.902 19.4547 219.854 19.2287 219.854 18.9927L219.854 11.2887L220.934 11.2887L220.934 18.3687C220.934 18.7047 220.956 18.9567 221 19.1247C221.044 19.2927 221.132 19.4047 221.264 19.4607C221.4 19.5167 221.606 19.5447 221.882 19.5447L221.726 20.4087L221.378 20.4087ZM225.584 20.4087C224.892 20.4087 224.31 20.2667 223.838 19.9827C223.366 19.6987 223.008 19.3227 222.764 18.8547C222.524 18.3827 222.404 17.8647 222.404 17.3007C222.404 16.7527 222.516 16.2507 222.74 15.7947C222.968 15.3387 223.296 14.9747 223.724 14.7027C224.156 14.4267 224.676 14.2887 225.284 14.2887C225.772 14.2887 226.206 14.3867 226.586 14.5827C226.97 14.7747 227.27 15.0567 227.486 15.4287C227.706 15.7967 227.816 16.2447 227.816 16.7727C227.816 16.8567 227.812 16.9487 227.804 17.0487C227.8 17.1447 227.788 17.2447 227.768 17.3487L223.508 17.3487C223.56 17.8927 223.69 18.3167 223.898 18.6207C224.106 18.9247 224.368 19.1387 224.684 19.2627C225 19.3867 225.344 19.4487 225.716 19.4487C225.988 19.4487 226.272 19.4207 226.568 19.3647C226.864 19.3087 227.144 19.2207 227.408 19.1007L227.552 19.9527C227.324 20.0527 227.046 20.1547 226.718 20.2587C226.39 20.3587 226.012 20.4087 225.584 20.4087ZM223.604 16.6047L226.7 16.6047C226.7 16.3287 226.648 16.0887 226.544 15.8847C226.44 15.6807 226.282 15.5247 226.07 15.4167C225.858 15.3047 225.588 15.2487 225.26 15.2487C224.78 15.2487 224.41 15.3687 224.15 15.6087C223.894 15.8447 223.712 16.1767 223.604 16.6047ZM228.366 20.2887L230.418 17.3607L228.414 14.4087L229.626 14.4087L231.102 16.7367L232.458 14.4087L233.718 14.4087L231.786 17.2647L233.79 20.2887L232.578 20.2887L231.09 17.9727L229.578 20.2887L228.366 20.2887ZM242.18 20.2887L239.072 15.8367L242.18 11.8887L243.56 11.8887L240.368 15.8127L243.596 20.2887L242.18 20.2887ZM237.812 20.2887L237.812 11.8887L238.952 11.8887L238.952 20.2887L237.812 20.2887ZM244.266 23.1927L245.622 20.0247L243.174 14.4087L244.374 14.4087L246.21 18.7767L247.866 14.4087L249.066 14.4087L245.466 23.1927L244.266 23.1927ZM251.621 20.4087C251.101 20.4087 250.669 20.3467 250.325 20.2227C249.985 20.0987 249.745 19.9887 249.605 19.8927L249.737 18.8487C249.865 18.9607 250.091 19.0887 250.415 19.2327C250.739 19.3767 251.125 19.4487 251.573 19.4487C251.953 19.4487 252.243 19.3847 252.443 19.2567C252.647 19.1287 252.749 18.9487 252.749 18.7167C252.749 18.5127 252.683 18.3487 252.551 18.2247C252.423 18.0967 252.267 17.9967 252.083 17.9247C251.903 17.8487 251.733 17.7887 251.573 17.7447C251.305 17.6727 251.027 17.5827 250.739 17.4747C250.455 17.3627 250.215 17.1967 250.019 16.9767C249.823 16.7567 249.725 16.4487 249.725 16.0527C249.725 15.7527 249.797 15.4687 249.941 15.2007C250.085 14.9287 250.319 14.7087 250.643 14.5407C250.967 14.3727 251.397 14.2887 251.933 14.2887C252.325 14.2887 252.643 14.3307 252.887 14.4147C253.135 14.4947 253.349 14.5807 253.529 14.6727L253.397 15.6567C253.225 15.5127 253.025 15.3907 252.797 15.2907C252.569 15.1907 252.289 15.1407 251.957 15.1407C251.621 15.1407 251.347 15.2047 251.135 15.3327C250.923 15.4567 250.817 15.6567 250.817 15.9327C250.817 16.2087 250.929 16.4047 251.153 16.5207C251.381 16.6367 251.725 16.7647 252.185 16.9047C252.329 16.9447 252.495 17.0027 252.683 17.0787C252.875 17.1547 253.061 17.2567 253.241 17.3847C253.421 17.5127 253.569 17.6807 253.685 17.8887C253.805 18.0927 253.865 18.3487 253.865 18.6567C253.865 18.9167 253.803 19.1827 253.679 19.4547C253.555 19.7227 253.331 19.9487 253.007 20.1327C252.683 20.3167 252.221 20.4087 251.621 20.4087ZM255.042 20.2887L255.042 14.4087L256.122 14.4087L256.122 20.2887L255.042 20.2887ZM255.042 13.0887L255.042 11.8887L256.122 11.8887L256.122 13.0887L255.042 13.0887ZM259.217 20.4087C258.837 20.4087 258.535 20.3407 258.311 20.2047C258.091 20.0647 257.933 19.8867 257.837 19.6707C257.741 19.4547 257.693 19.2287 257.693 18.9927L257.693 11.2887L258.773 11.2887L258.773 18.3687C258.773 18.7047 258.795 18.9567 258.839 19.1247C258.883 19.2927 258.971 19.4047 259.103 19.4607C259.239 19.5167 259.445 19.5447 259.721 19.5447L259.565 20.4087L259.217 20.4087Z" fill="#A5A3F1"/>
<path d="M239.436 47.9078L242.6 47.0107L259.354 60.8805L239.631 72.2671L236.577 49.8668L239.436 47.9078Z" fill="url(#paint0_linear_185_74)"/>
<circle cx="239.202" cy="47.7887" r="4.5" fill="#DF609D"/>
<circle cx="199" cy="46.0001" r="1" fill="#F7DF1E"/>
<circle cx="203" cy="45.0001" r="1" fill="#F7DF1E"/>
<circle cx="207" cy="44.0001" r="1" fill="#F7DF1E"/>
<circle cx="253.091" cy="234.681" r="137.5" transform="rotate(-7.18917 253.091 234.681)" fill="url(#paint1_linear_185_74)" fill-opacity="0.13" stroke="url(#paint2_linear_185_74)" stroke-width="4"/>
<path d="M116.5 239.5C55.6848 254.616 18.3 271.079 19.9608 284.246C22.76 306.438 138.521 310.112 278.521 292.453C418.52 274.794 529.743 242.488 526.944 220.297C524.973 204.673 468.49 198.285 385.5 202" stroke="url(#paint3_linear_185_74)" stroke-width="8"/>
<ellipse cx="181.759" cy="177.553" rx="30.5" ry="4" transform="rotate(-6.74112 181.759 177.553)" fill="#A5A3F1" fill-opacity="0.38"/>
<ellipse cx="183.345" cy="180.104" rx="8" ry="3" transform="rotate(-8.1541 183.345 180.104)" fill="#D9D9D9"/>
<g filter="url(#filter0_d_185_74)">
<path d="M152.161 176.012L151.837 174.896C152.337 174.833 152.679 174.679 152.865 174.435C153.05 174.19 153.113 173.832 153.054 173.36L151.841 163.748L153.161 163.581L154.412 173.499C154.508 174.263 154.4 174.841 154.087 175.233C153.775 175.63 153.253 175.874 152.522 175.967L152.161 176.012ZM157.948 172.996C157.527 173.049 157.148 173.01 156.812 172.879C156.475 172.747 156.2 172.544 155.987 172.27C155.778 171.995 155.65 171.668 155.602 171.288C155.554 170.904 155.596 170.565 155.728 170.271C155.864 169.971 156.062 169.713 156.322 169.497C156.585 169.276 156.887 169.09 157.225 168.939C157.563 168.783 157.916 168.659 158.286 168.565C158.659 168.466 159.019 168.393 159.365 168.344C159.284 167.696 159.103 167.289 158.823 167.122C158.543 166.955 158.163 166.901 157.681 166.962C157.427 166.994 157.158 167.068 156.877 167.184C156.599 167.299 156.296 167.504 155.967 167.799L155.658 166.808C155.905 166.565 156.224 166.353 156.615 166.172C157.006 165.987 157.425 165.866 157.874 165.809C158.449 165.737 158.924 165.78 159.302 165.939C159.679 166.094 159.979 166.4 160.201 166.856C160.423 167.313 160.586 167.95 160.689 168.77L160.864 170.159C160.905 170.483 160.953 170.75 161.008 170.959C161.066 171.164 161.156 171.312 161.276 171.405C161.399 171.493 161.582 171.522 161.823 171.492L161.948 171.476L161.879 172.5L161.782 172.513C161.379 172.563 161.062 172.564 160.83 172.513C160.602 172.462 160.421 172.369 160.287 172.236C160.152 172.102 160.025 171.935 159.906 171.733C159.689 172.062 159.418 172.34 159.094 172.569C158.77 172.798 158.388 172.941 157.948 172.996ZM158.058 171.966C158.392 171.924 158.703 171.8 158.992 171.595C159.286 171.388 159.515 171.134 159.679 170.831L159.474 169.205C158.815 169.312 158.286 169.445 157.887 169.603C157.493 169.761 157.215 169.958 157.052 170.195C156.889 170.432 156.829 170.72 156.871 171.058C156.918 171.424 157.048 171.677 157.264 171.82C157.483 171.957 157.748 172.005 158.058 171.966ZM164.791 171.992L161.335 165.514L162.724 165.338L165.312 170.529L166.516 164.86L167.919 164.683L166.194 171.815L164.791 171.992ZM171.411 171.298C170.99 171.351 170.611 171.312 170.274 171.18C169.938 171.049 169.663 170.846 169.45 170.572C169.241 170.297 169.113 169.97 169.065 169.59C169.016 169.206 169.058 168.867 169.19 168.573C169.327 168.273 169.525 168.015 169.784 167.799C170.048 167.578 170.349 167.392 170.687 167.241C171.025 167.085 171.379 166.961 171.748 166.867C172.121 166.768 172.481 166.695 172.828 166.646C172.746 165.998 172.565 165.59 172.286 165.423C172.006 165.256 171.625 165.203 171.144 165.264C170.889 165.296 170.621 165.37 170.339 165.486C170.062 165.6 169.758 165.806 169.429 166.101L169.12 165.11C169.367 164.867 169.686 164.655 170.077 164.474C170.468 164.289 170.888 164.168 171.337 164.111C171.911 164.038 172.387 164.082 172.764 164.241C173.141 164.396 173.441 164.702 173.663 165.158C173.885 165.614 174.048 166.252 174.151 167.072L174.327 168.461C174.368 168.785 174.415 169.052 174.47 169.261C174.529 169.465 174.618 169.614 174.738 169.707C174.862 169.795 175.044 169.824 175.285 169.793L175.41 169.778L175.342 170.802L175.244 170.815C174.842 170.865 174.524 170.865 174.292 170.815C174.064 170.763 173.883 170.671 173.749 170.537C173.615 170.404 173.488 170.237 173.368 170.035C173.151 170.364 172.88 170.642 172.556 170.871C172.233 171.1 171.851 171.243 171.411 171.298ZM171.521 170.268C171.854 170.226 172.165 170.102 172.455 169.896C172.748 169.69 172.977 169.435 173.141 169.132L172.936 167.507C172.277 167.614 171.748 167.747 171.35 167.905C170.956 168.063 170.677 168.26 170.514 168.497C170.351 168.734 170.291 169.022 170.334 169.36C170.38 169.725 170.511 169.979 170.726 170.122C170.946 170.258 171.211 170.307 171.521 170.268ZM179.607 170.321C179.205 170.371 178.798 170.392 178.388 170.383C177.977 170.373 177.595 170.344 177.241 170.295C176.886 170.241 176.588 170.175 176.348 170.097L176.351 168.671C176.617 168.76 176.933 168.847 177.302 168.932C177.674 169.017 178.072 169.077 178.496 169.113C178.919 169.149 179.341 169.141 179.762 169.088C180.387 169.009 180.869 168.833 181.206 168.56C181.547 168.282 181.687 167.899 181.626 167.413C181.579 167.047 181.449 166.761 181.235 166.552C181.02 166.34 180.714 166.174 180.318 166.054C179.927 165.934 179.44 165.826 178.859 165.73C178.307 165.64 177.793 165.517 177.317 165.36C176.84 165.199 176.443 164.956 176.124 164.629C175.809 164.297 175.614 163.83 175.538 163.228C175.473 162.714 175.548 162.244 175.762 161.817C175.98 161.385 176.332 161.025 176.818 160.738C177.309 160.451 177.929 160.26 178.679 160.165C179.318 160.084 179.913 160.08 180.463 160.152C181.017 160.223 181.479 160.32 181.847 160.443L181.885 161.863C181.317 161.615 180.784 161.454 180.286 161.38C179.792 161.306 179.288 161.302 178.774 161.366C178.205 161.438 177.746 161.604 177.398 161.865C177.054 162.124 176.913 162.495 176.974 162.977C177.015 163.301 177.131 163.556 177.324 163.744C177.517 163.926 177.787 164.071 178.134 164.178C178.481 164.28 178.909 164.374 179.419 164.46C180.12 164.579 180.731 164.739 181.25 164.942C181.769 165.14 182.182 165.414 182.49 165.766C182.797 166.113 182.987 166.569 183.058 167.134C183.11 167.55 183.079 167.935 182.964 168.289C182.848 168.642 182.648 168.956 182.363 169.232C182.078 169.508 181.705 169.739 181.244 169.924C180.787 170.108 180.242 170.241 179.607 170.321ZM187.934 169.214C187.166 169.311 186.5 169.237 185.938 168.993C185.38 168.744 184.933 168.372 184.598 167.878C184.267 167.379 184.06 166.805 183.979 166.157C183.893 165.481 183.944 164.856 184.13 164.282C184.321 163.708 184.663 163.23 185.156 162.848C185.648 162.466 186.309 162.222 187.138 162.118C187.494 162.073 187.835 162.067 188.159 162.102C188.487 162.131 188.784 162.192 189.05 162.286L188.994 163.408C188.724 163.319 188.441 163.259 188.145 163.225C187.854 163.192 187.556 163.194 187.25 163.232C186.5 163.327 185.955 163.612 185.615 164.088C185.276 164.563 185.154 165.181 185.249 165.94C185.343 166.681 185.605 167.252 186.037 167.654C186.469 168.056 187.069 168.208 187.837 168.111C188.152 168.072 188.449 167.997 188.726 167.886C189.009 167.775 189.274 167.639 189.521 167.476L189.814 168.455C189.645 168.608 189.389 168.76 189.046 168.911C188.703 169.063 188.332 169.164 187.934 169.214ZM191.238 168.656L190.379 161.85L191.407 161.72L191.702 162.826C191.995 162.352 192.286 161.993 192.575 161.749C192.868 161.501 193.195 161.354 193.556 161.308C193.672 161.294 193.78 161.294 193.881 161.309L193.93 162.7C193.868 162.694 193.802 162.693 193.732 162.697C193.666 162.696 193.591 162.701 193.508 162.711C193.147 162.757 192.823 162.88 192.538 163.08C192.257 163.276 192.066 163.476 191.965 163.682L192.571 168.488L191.238 168.656ZM195.772 168.084L194.913 161.278L196.163 161.12L197.022 167.926L195.772 168.084ZM194.72 159.75L194.545 158.361L195.795 158.204L195.97 159.593L194.72 159.75ZM199.278 171.057L197.995 160.889L198.968 160.767L199.386 162.294L199.007 162.088C199.238 161.607 199.548 161.211 199.937 160.898C200.325 160.586 200.825 160.391 201.437 160.314C202.057 160.236 202.609 160.326 203.093 160.585C203.578 160.844 203.972 161.227 204.276 161.734C204.579 162.237 204.772 162.819 204.856 163.481C204.939 164.143 204.904 164.757 204.749 165.322C204.594 165.882 204.317 166.348 203.916 166.718C203.516 167.088 202.988 167.315 202.33 167.398C201.788 167.466 201.284 167.417 200.816 167.25C200.352 167.078 199.994 166.78 199.743 166.356L199.92 166.079L200.528 170.899L199.278 171.057ZM201.954 166.317C202.56 166.24 203.006 165.968 203.29 165.499C203.578 165.025 203.674 164.406 203.578 163.642C203.481 162.878 203.235 162.305 202.839 161.922C202.446 161.534 201.947 161.379 201.341 161.455C200.966 161.502 200.634 161.636 200.347 161.856C200.063 162.07 199.852 162.37 199.712 162.754C199.572 163.134 199.536 163.597 199.605 164.143C199.677 164.713 199.828 165.164 200.058 165.497C200.289 165.831 200.567 166.063 200.894 166.196C201.226 166.324 201.579 166.364 201.954 166.317ZM208.995 166.557C208.564 166.612 208.209 166.576 207.93 166.452C207.651 166.327 207.436 166.15 207.284 165.919C207.137 165.684 207.046 165.43 207.012 165.157L206.463 160.809L205.296 160.956L205.285 159.97L206.341 159.837L206.129 158.156L207.363 157.873L207.591 159.679L209.382 159.453L209.505 160.425L207.713 160.651L208.165 164.235C208.22 164.67 208.285 164.982 208.361 165.17C208.436 165.358 208.577 165.465 208.782 165.491C208.992 165.516 209.322 165.5 209.771 165.443L210.091 165.403L210.12 166.415L208.995 166.557Z" fill="#A5A3F1"/>
</g>
<ellipse cx="248.759" cy="241.553" rx="30.5" ry="4" transform="rotate(-6.74112 248.759 241.553)" fill="url(#paint4_linear_185_74)" fill-opacity="0.38"/>
<ellipse cx="250.345" cy="244.104" rx="8" ry="3" transform="rotate(-8.1541 250.345 244.104)" fill="#D9D9D9"/>
<path d="M251.317 246.192L252.817 246.192L258.409 254.301L248.327 256.824L249.817 246.692L251.317 246.192Z" fill="url(#paint5_linear_185_74)"/>
<g filter="url(#filter1_d_185_74)">
<path d="M217.325 237.978L216.249 229.45L213.416 229.807L213.265 228.613L220.252 227.731L220.403 228.926L217.569 229.283L218.645 237.812L217.325 237.978ZM222.433 240.749L223.54 236.884L219.887 230.741L221.276 230.565L224.039 235.353L225.318 230.056L226.707 229.88L223.822 240.573L222.433 240.749ZM229.071 239.911L227.789 229.744L228.761 229.621L229.179 231.149L228.801 230.943C229.032 230.462 229.342 230.065 229.73 229.753C230.119 229.441 230.619 229.246 231.23 229.169C231.85 229.09 232.403 229.181 232.887 229.439C233.371 229.698 233.765 230.081 234.069 230.589C234.372 231.091 234.565 231.674 234.649 232.336C234.733 232.998 234.697 233.611 234.543 234.177C234.387 234.737 234.11 235.202 233.71 235.573C233.31 235.943 232.781 236.17 232.123 236.253C231.582 236.321 231.077 236.272 230.609 236.105C230.145 235.933 229.788 235.635 229.537 235.21L229.713 234.934L230.321 239.754L229.071 239.911ZM231.747 235.171C232.354 235.095 232.799 234.822 233.083 234.354C233.372 233.88 233.468 233.261 233.371 232.497C233.275 231.733 233.028 231.16 232.632 230.777C232.24 230.389 231.74 230.233 231.134 230.31C230.759 230.357 230.428 230.491 230.14 230.71C229.857 230.925 229.645 231.224 229.506 231.609C229.365 231.989 229.33 232.452 229.399 232.998C229.47 233.567 229.621 234.019 229.852 234.352C230.082 234.685 230.36 234.918 230.688 235.051C231.019 235.178 231.372 235.218 231.747 235.171ZM239.799 235.284C238.998 235.385 238.304 235.306 237.716 235.046C237.128 234.786 236.659 234.403 236.308 233.897C235.962 233.386 235.747 232.804 235.665 232.151C235.585 231.517 235.641 230.919 235.834 230.359C236.031 229.798 236.358 229.329 236.813 228.951C237.273 228.569 237.855 228.333 238.559 228.244C239.124 228.173 239.64 228.223 240.109 228.394C240.581 228.561 240.97 228.843 241.274 229.242C241.582 229.636 241.775 230.139 241.852 230.75C241.864 230.847 241.873 230.954 241.879 231.071C241.888 231.183 241.889 231.3 241.881 231.424L236.95 232.046C237.089 232.668 237.302 233.139 237.587 233.461C237.872 233.782 238.207 233.992 238.59 234.089C238.974 234.187 239.382 234.208 239.812 234.154C240.127 234.114 240.452 234.04 240.786 233.932C241.12 233.824 241.432 233.681 241.72 233.504L242.011 234.469C241.762 234.618 241.455 234.777 241.09 234.945C240.725 235.109 240.295 235.222 239.799 235.284ZM236.952 231.17L240.536 230.718C240.496 230.399 240.4 230.129 240.25 229.908C240.1 229.687 239.894 229.529 239.633 229.435C239.371 229.336 239.051 229.311 238.671 229.359C238.115 229.429 237.705 229.622 237.439 229.938C237.177 230.248 237.015 230.659 236.952 231.17ZM246.627 234.48C246.225 234.53 245.818 234.551 245.408 234.542C244.997 234.532 244.615 234.503 244.261 234.454C243.906 234.4 243.608 234.334 243.368 234.256L243.371 232.83C243.637 232.919 243.953 233.006 244.322 233.091C244.694 233.176 245.092 233.236 245.516 233.272C245.939 233.308 246.361 233.3 246.782 233.246C247.407 233.168 247.888 232.992 248.226 232.719C248.567 232.44 248.707 232.058 248.645 231.572C248.599 231.206 248.469 230.919 248.255 230.711C248.04 230.498 247.734 230.332 247.338 230.213C246.947 230.093 246.46 229.985 245.879 229.889C245.327 229.799 244.813 229.676 244.337 229.519C243.86 229.358 243.462 229.114 243.144 228.788C242.829 228.456 242.634 227.989 242.558 227.387C242.493 226.873 242.568 226.403 242.782 225.976C243 225.544 243.352 225.184 243.838 224.897C244.329 224.61 244.949 224.418 245.699 224.324C246.338 224.243 246.933 224.239 247.483 224.311C248.037 224.382 248.499 224.479 248.867 224.602L248.905 226.022C248.337 225.774 247.804 225.613 247.306 225.539C246.812 225.465 246.308 225.461 245.794 225.525C245.225 225.597 244.766 225.763 244.418 226.024C244.074 226.283 243.933 226.654 243.994 227.135C244.035 227.459 244.151 227.715 244.344 227.903C244.537 228.085 244.807 228.23 245.154 228.337C245.501 228.439 245.929 228.533 246.439 228.619C247.14 228.738 247.751 228.898 248.27 229.101C248.789 229.299 249.202 229.573 249.51 229.925C249.817 230.272 250.006 230.728 250.078 231.293C250.13 231.709 250.099 232.094 249.984 232.448C249.868 232.801 249.668 233.115 249.383 233.391C249.098 233.667 248.725 233.897 248.264 234.083C247.807 234.267 247.262 234.4 246.627 234.48ZM254.954 233.373C254.186 233.47 253.52 233.396 252.958 233.152C252.4 232.902 251.953 232.531 251.618 232.037C251.287 231.538 251.08 230.964 250.998 230.316C250.913 229.64 250.964 229.015 251.15 228.441C251.341 227.867 251.683 227.388 252.176 227.006C252.668 226.624 253.329 226.381 254.158 226.277C254.514 226.232 254.855 226.226 255.179 226.261C255.507 226.29 255.804 226.351 256.07 226.445L256.014 227.566C255.744 227.478 255.461 227.417 255.165 227.384C254.874 227.35 254.576 227.353 254.27 227.391C253.52 227.486 252.975 227.771 252.635 228.247C252.296 228.722 252.174 229.34 252.269 230.099C252.363 230.84 252.625 231.411 253.057 231.813C253.489 232.215 254.089 232.367 254.857 232.27C255.172 232.23 255.469 232.155 255.746 232.045C256.029 231.934 256.294 231.797 256.541 231.634L256.834 232.614C256.665 232.767 256.409 232.919 256.066 233.07C255.723 233.222 255.352 233.323 254.954 233.373ZM258.258 232.815L257.399 226.009L258.427 225.879L258.722 226.985C259.015 226.511 259.306 226.152 259.595 225.908C259.888 225.66 260.215 225.513 260.576 225.467C260.692 225.452 260.8 225.453 260.901 225.468L260.95 226.859C260.888 226.853 260.822 226.852 260.752 226.856C260.686 226.855 260.611 226.86 260.528 226.87C260.166 226.916 259.843 227.039 259.558 227.239C259.277 227.435 259.086 227.635 258.985 227.841L259.591 232.647L258.258 232.815ZM262.792 232.243L261.933 225.437L263.183 225.279L264.042 232.085L262.792 232.243ZM261.74 223.909L261.565 222.52L262.815 222.362L262.99 223.751L261.74 223.909ZM266.298 235.216L265.015 225.048L265.988 224.926L266.406 226.453L266.027 226.247C266.258 225.766 266.568 225.37 266.957 225.057C267.345 224.745 267.845 224.55 268.456 224.473C269.077 224.395 269.629 224.485 270.113 224.744C270.598 225.003 270.992 225.386 271.295 225.893C271.599 226.396 271.792 226.978 271.876 227.64C271.959 228.302 271.924 228.916 271.769 229.481C271.614 230.041 271.337 230.507 270.936 230.877C270.536 231.247 270.007 231.474 269.35 231.557C268.808 231.625 268.303 231.576 267.836 231.409C267.372 231.237 267.014 230.939 266.763 230.514L266.94 230.238L267.548 235.058L266.298 235.216ZM268.974 230.475C269.58 230.399 270.026 230.126 270.31 229.658C270.598 229.184 270.694 228.565 270.598 227.801C270.501 227.037 270.255 226.464 269.859 226.081C269.466 225.693 268.967 225.538 268.36 225.614C267.985 225.661 267.654 225.795 267.367 226.015C267.083 226.229 266.872 226.529 266.732 226.913C266.592 227.293 266.556 227.756 266.625 228.302C266.697 228.872 266.848 229.323 267.078 229.656C267.308 229.989 267.587 230.222 267.914 230.355C268.246 230.483 268.599 230.523 268.974 230.475ZM276.014 230.716C275.584 230.771 275.229 230.735 274.95 230.611C274.671 230.486 274.455 230.308 274.304 230.078C274.157 229.843 274.066 229.589 274.032 229.315L273.483 224.968L272.316 225.115L272.305 224.129L273.361 223.996L273.149 222.315L274.383 222.032L274.611 223.838L276.402 223.612L276.525 224.584L274.733 224.81L275.185 228.394C275.24 228.829 275.305 229.141 275.381 229.329C275.456 229.517 275.597 229.624 275.802 229.649C276.012 229.675 276.342 229.659 276.791 229.602L277.111 229.562L277.14 230.574L276.014 230.716Z" fill="#A5A3F1"/>
</g>
<ellipse cx="273.759" cy="343.553" rx="30.5" ry="4" transform="rotate(-6.74112 273.759 343.553)" fill="#A5A3F1" fill-opacity="0.38"/>
<ellipse cx="275.345" cy="346.104" rx="8" ry="3" transform="rotate(-8.1541 275.345 346.104)" fill="#D9D9D9"/>
<g filter="url(#filter2_d_185_74)">
<path d="M240.834 341.635L236.858 332.259L238.247 332.083L241.313 339.839L242.702 331.719L244.091 331.544L247.453 339.064L248.497 330.79L249.886 330.615L248.363 340.685L246.96 340.862L243.612 333.34L242.237 341.458L240.834 341.635ZM254.606 340.039C253.893 340.129 253.264 340.048 252.72 339.797C252.179 339.54 251.741 339.163 251.406 338.664C251.074 338.161 250.867 337.58 250.784 336.922C250.701 336.265 250.758 335.653 250.955 335.088C251.155 334.517 251.486 334.042 251.946 333.664C252.411 333.281 252.999 333.045 253.712 332.955C254.421 332.865 255.047 332.949 255.592 333.204C256.137 333.456 256.575 333.833 256.906 334.337C257.242 334.835 257.451 335.413 257.534 336.071C257.617 336.728 257.558 337.343 257.358 337.914C257.161 338.479 256.83 338.954 256.366 339.337C255.901 339.715 255.314 339.949 254.606 340.039ZM254.466 338.927C255.142 338.842 255.633 338.564 255.941 338.092C256.248 337.616 256.353 336.996 256.256 336.232C256.16 335.468 255.905 334.896 255.49 334.516C255.074 334.131 254.528 333.981 253.853 334.066C253.181 334.151 252.69 334.431 252.378 334.908C252.071 335.38 251.965 335.997 252.062 336.761C252.158 337.525 252.414 338.1 252.829 338.485C253.249 338.865 253.794 339.012 254.466 338.927ZM259.392 339.294L258.533 332.488L259.561 332.358L259.856 333.464C260.149 332.99 260.44 332.631 260.729 332.387C261.022 332.139 261.349 331.991 261.71 331.946C261.826 331.931 261.934 331.932 262.035 331.947L262.083 333.338C262.021 333.332 261.955 333.331 261.885 333.335C261.819 333.334 261.745 333.339 261.661 333.349C261.3 333.395 260.977 333.518 260.692 333.718C260.411 333.914 260.22 334.114 260.119 334.32L260.725 339.126L259.392 339.294ZM266.461 338.543C265.882 338.616 265.339 338.525 264.832 338.269C264.325 338.013 263.899 337.636 263.554 337.139C263.213 336.641 263.002 336.063 262.919 335.406C262.84 334.781 262.891 334.182 263.073 333.608C263.259 333.035 263.563 332.554 263.985 332.167C264.406 331.775 264.933 331.539 265.568 331.459C266.021 331.402 266.471 331.446 266.918 331.592C267.368 331.733 267.754 332.016 268.076 332.441L267.835 332.655L267.213 327.724L268.463 327.566L269.777 337.984L268.666 338.124L268.248 336.709L268.595 336.891C268.453 337.365 268.183 337.745 267.786 338.03C267.389 338.311 266.947 338.482 266.461 338.543ZM266.543 337.404C266.858 337.364 267.158 337.244 267.443 337.044C267.733 336.842 267.955 336.553 268.11 336.176C268.269 335.794 268.312 335.314 268.239 334.735C268.171 334.198 268.012 333.762 267.763 333.426C267.518 333.085 267.229 332.844 266.896 332.703C266.567 332.556 266.245 332.503 265.93 332.543C265.504 332.596 265.152 332.749 264.873 333C264.594 333.252 264.397 333.573 264.282 333.964C264.166 334.35 264.138 334.777 264.197 335.245C264.252 335.685 264.384 336.077 264.592 336.422C264.8 336.768 265.071 337.032 265.405 337.216C265.738 337.395 266.117 337.458 266.543 337.404ZM272.016 341.116L270.734 330.949L271.706 330.826L272.125 332.354L271.746 332.148C271.977 331.667 272.287 331.27 272.675 330.958C273.064 330.645 273.564 330.451 274.175 330.374C274.795 330.295 275.348 330.386 275.832 330.644C276.316 330.903 276.71 331.286 277.014 331.794C277.317 332.296 277.511 332.879 277.594 333.541C277.678 334.203 277.642 334.816 277.488 335.381C277.333 335.942 277.055 336.407 276.655 336.778C276.255 337.148 275.726 337.375 275.069 337.457C274.527 337.526 274.022 337.477 273.554 337.31C273.09 337.138 272.733 336.84 272.482 336.415L272.659 336.139L273.267 340.959L272.016 341.116ZM274.692 336.376C275.299 336.3 275.744 336.027 276.028 335.558C276.317 335.085 276.413 334.466 276.316 333.702C276.22 332.938 275.974 332.365 275.577 331.982C275.185 331.594 274.686 331.438 274.079 331.515C273.704 331.562 273.373 331.695 273.085 331.915C272.802 332.13 272.59 332.429 272.451 332.814C272.311 333.193 272.275 333.657 272.344 334.203C272.416 334.772 272.567 335.224 272.797 335.557C273.027 335.89 273.306 336.123 273.633 336.256C273.964 336.383 274.317 336.423 274.692 336.376ZM279.463 336.762L278.605 329.956L279.632 329.826L279.927 330.932C280.22 330.458 280.511 330.099 280.8 329.855C281.093 329.607 281.421 329.46 281.782 329.414C281.897 329.4 282.006 329.4 282.106 329.416L282.155 330.806C282.093 330.8 282.027 330.799 281.957 330.803C281.891 330.802 281.816 330.807 281.733 330.817C281.372 330.863 281.049 330.986 280.764 331.186C280.482 331.382 280.291 331.582 280.19 331.788L280.797 336.594L279.463 336.762ZM287.102 335.94C286.301 336.041 285.607 335.961 285.019 335.701C284.431 335.442 283.962 335.059 283.611 334.553C283.264 334.041 283.05 333.459 282.968 332.806C282.888 332.172 282.944 331.575 283.137 331.014C283.334 330.453 283.66 329.984 284.116 329.607C284.576 329.224 285.158 328.988 285.861 328.9C286.426 328.828 286.943 328.878 287.411 329.05C287.884 329.216 288.272 329.499 288.577 329.898C288.885 330.291 289.078 330.794 289.155 331.405C289.167 331.502 289.176 331.609 289.181 331.726C289.191 331.838 289.191 331.956 289.183 332.079L284.252 332.701C284.392 333.323 284.604 333.795 284.89 334.116C285.175 334.438 285.509 334.647 285.893 334.745C286.277 334.842 286.684 334.863 287.115 334.809C287.43 334.769 287.754 334.696 288.089 334.588C288.423 334.479 288.734 334.337 289.022 334.159L289.314 335.124C289.064 335.274 288.757 335.432 288.393 335.6C288.028 335.764 287.598 335.877 287.102 335.94ZM284.255 331.826L287.839 331.374C287.798 331.054 287.703 330.784 287.553 330.563C287.403 330.342 287.197 330.185 286.936 330.09C286.674 329.992 286.353 329.966 285.974 330.014C285.418 330.084 285.007 330.277 284.741 330.593C284.48 330.904 284.317 331.314 284.255 331.826ZM293.015 335.194C292.413 335.27 291.904 335.261 291.488 335.168C291.076 335.074 290.783 334.981 290.607 334.891L290.607 333.663C290.771 333.774 291.052 333.889 291.448 334.009C291.844 334.128 292.301 334.155 292.82 334.09C293.259 334.034 293.586 333.918 293.799 333.74C294.016 333.562 294.108 333.339 294.074 333.071C294.044 332.834 293.944 332.654 293.773 332.53C293.606 332.401 293.411 332.308 293.187 332.251C292.968 332.189 292.762 332.145 292.571 332.117C292.25 332.073 291.915 332.009 291.566 331.926C291.221 331.838 290.919 331.681 290.66 331.455C290.401 331.229 290.243 330.887 290.185 330.429C290.141 330.081 290.183 329.742 290.31 329.411C290.437 329.075 290.676 328.786 291.027 328.544C291.377 328.303 291.863 328.143 292.483 328.064C292.937 328.007 293.311 328.009 293.606 328.071C293.904 328.127 294.165 328.196 294.386 328.276L294.377 329.434C294.157 329.292 293.908 329.18 293.629 329.098C293.351 329.016 293.019 328.999 292.635 329.047C292.246 329.096 291.938 329.21 291.712 329.389C291.484 329.564 291.391 329.811 291.431 330.13C291.472 330.45 291.63 330.66 291.906 330.762C292.187 330.863 292.604 330.961 293.157 331.056C293.329 331.081 293.53 331.124 293.758 331.184C293.992 331.244 294.222 331.335 294.449 331.457C294.676 331.579 294.872 331.752 295.036 331.976C295.205 332.194 295.312 332.482 295.357 332.838C295.395 333.139 295.362 333.456 295.258 333.789C295.154 334.117 294.928 334.412 294.579 334.672C294.231 334.932 293.71 335.106 293.015 335.194ZM298.906 334.451C298.304 334.527 297.795 334.518 297.378 334.425C296.967 334.331 296.673 334.239 296.497 334.148L296.497 332.92C296.662 333.031 296.942 333.146 297.338 333.266C297.734 333.385 298.191 333.412 298.71 333.347C299.15 333.291 299.476 333.175 299.689 332.997C299.906 332.819 299.998 332.596 299.964 332.328C299.934 332.091 299.834 331.911 299.663 331.787C299.496 331.658 299.301 331.565 299.078 331.508C298.858 331.446 298.653 331.402 298.461 331.374C298.14 331.33 297.805 331.266 297.456 331.183C297.111 331.095 296.809 330.938 296.55 330.712C296.291 330.486 296.133 330.144 296.075 329.686C296.031 329.338 296.073 328.999 296.201 328.668C296.328 328.332 296.566 328.043 296.917 327.801C297.267 327.56 297.753 327.4 298.373 327.321C298.827 327.264 299.201 327.266 299.496 327.328C299.795 327.384 300.055 327.453 300.277 327.533L300.267 328.691C300.047 328.549 299.798 328.437 299.52 328.355C299.241 328.273 298.91 328.256 298.525 328.304C298.136 328.353 297.829 328.467 297.602 328.646C297.375 328.821 297.281 329.068 297.321 329.387C297.362 329.707 297.52 329.917 297.796 330.019C298.077 330.12 298.494 330.218 299.047 330.313C299.219 330.338 299.42 330.381 299.649 330.441C299.882 330.501 300.112 330.592 300.339 330.714C300.566 330.836 300.762 331.009 300.927 331.233C301.095 331.451 301.202 331.739 301.247 332.095C301.285 332.396 301.252 332.713 301.148 333.046C301.044 333.374 300.818 333.669 300.47 333.929C300.121 334.189 299.6 334.363 298.906 334.451Z" fill="#A5A3F1"/>
</g>
<path d="M320.878 188.806C320.983 189.534 320.455 190.435 319.157 191.291C317.895 192.124 316.049 192.805 313.919 193.11C311.788 193.415 309.825 193.28 308.38 192.835C306.894 192.378 306.134 191.661 306.03 190.934C305.926 190.206 306.454 189.304 307.751 188.448C309.013 187.616 310.86 186.935 312.99 186.63C315.121 186.324 317.084 186.46 318.529 186.904C320.015 187.361 320.774 188.078 320.878 188.806Z" fill="#2F3040" stroke="#202020"/>
<ellipse cx="313.821" cy="194.026" rx="30.5" ry="4" transform="rotate(-6.74112 313.821 194.026)" fill="#473670"/>
<path d="M322.831 195.514C322.862 195.732 322.784 196.015 322.488 196.365C322.191 196.714 321.714 197.082 321.067 197.437C319.776 198.144 317.904 198.745 315.761 199.052C313.618 199.359 311.653 199.308 310.215 198.992C309.494 198.833 308.933 198.614 308.551 198.362C308.168 198.109 308.014 197.859 307.982 197.641C307.951 197.424 308.029 197.141 308.326 196.791C308.622 196.441 309.099 196.073 309.746 195.719C311.037 195.011 312.909 194.41 315.052 194.103C317.195 193.796 319.16 193.848 320.598 194.164C321.319 194.322 321.88 194.541 322.263 194.794C322.646 195.046 322.8 195.296 322.831 195.514Z" fill="#D9D9D9" stroke="black"/>
<path d="M316.088 199.25L318.154 199.254L325.881 210.526L312 214L314.023 199.939L316.088 199.25Z" fill="url(#paint6_linear_185_74)"/>
<g filter="url(#filter3_d_185_74)">
<path d="M293.394 182.467L292.168 172.744L295.321 172.347C295.997 172.261 296.601 172.291 297.131 172.436C297.662 172.58 298.094 172.853 298.427 173.253C298.76 173.653 298.969 174.196 299.056 174.881C299.14 175.548 299.064 176.124 298.829 176.61C298.599 177.095 298.224 177.502 297.706 177.831L300.395 181.584L298.784 181.787L296.333 178.244C296.319 178.246 296.308 178.247 296.298 178.249C296.289 178.25 296.278 178.251 296.264 178.253L294.305 178.5L294.783 182.292L293.394 182.467ZM294.156 177.319L295.906 177.099C296.568 177.015 297.046 176.793 297.339 176.431C297.637 176.069 297.751 175.61 297.681 175.055C297.609 174.49 297.385 174.074 297.008 173.806C296.635 173.538 296.118 173.445 295.456 173.529L293.706 173.75L294.156 177.319ZM304.663 181.187C303.862 181.288 303.167 181.209 302.579 180.949C301.992 180.689 301.522 180.306 301.172 179.8C300.825 179.289 300.61 178.707 300.528 178.054C300.448 177.42 300.504 176.822 300.697 176.262C300.894 175.7 301.221 175.231 301.677 174.854C302.136 174.471 302.718 174.236 303.422 174.147C303.987 174.076 304.503 174.126 304.972 174.297C305.444 174.463 305.833 174.746 306.137 175.145C306.445 175.539 306.638 176.041 306.715 176.652C306.728 176.75 306.736 176.857 306.742 176.974C306.751 177.085 306.752 177.203 306.744 177.326L301.813 177.948C301.953 178.57 302.165 179.042 302.45 179.364C302.735 179.685 303.07 179.895 303.454 179.992C303.837 180.089 304.245 180.111 304.675 180.057C304.99 180.017 305.315 179.943 305.649 179.835C305.984 179.727 306.295 179.584 306.583 179.407L306.874 180.372C306.625 180.521 306.318 180.68 305.953 180.848C305.588 181.011 305.158 181.125 304.663 181.187ZM301.815 177.073L305.399 176.621C305.359 176.301 305.263 176.031 305.113 175.81C304.963 175.589 304.757 175.432 304.496 175.338C304.235 175.239 303.914 175.214 303.534 175.262C302.979 175.332 302.568 175.525 302.302 175.84C302.04 176.151 301.878 176.562 301.815 177.073ZM310.229 180.485C309.807 180.538 309.428 180.499 309.092 180.367C308.755 180.236 308.481 180.033 308.267 179.759C308.059 179.484 307.93 179.157 307.882 178.777C307.834 178.393 307.876 178.054 308.008 177.759C308.144 177.46 308.342 177.202 308.602 176.986C308.866 176.765 309.167 176.578 309.505 176.428C309.843 176.272 310.197 176.148 310.566 176.054C310.939 175.955 311.299 175.881 311.646 175.833C311.564 175.185 311.383 174.777 311.103 174.61C310.824 174.443 310.443 174.39 309.961 174.451C309.707 174.483 309.439 174.557 309.157 174.672C308.88 174.787 308.576 174.993 308.247 175.288L307.938 174.297C308.185 174.054 308.504 173.842 308.895 173.661C309.286 173.476 309.705 173.354 310.155 173.298C310.729 173.225 311.205 173.269 311.582 173.428C311.959 173.583 312.259 173.888 312.481 174.345C312.703 174.801 312.866 175.439 312.969 176.259L313.144 177.648C313.185 177.972 313.233 178.239 313.288 178.448C313.346 178.652 313.436 178.801 313.556 178.894C313.68 178.982 313.862 179.011 314.103 178.98L314.228 178.965L314.159 179.989L314.062 180.001C313.659 180.052 313.342 180.052 313.11 180.002C312.882 179.95 312.701 179.858 312.567 179.724C312.432 179.591 312.305 179.423 312.186 179.222C311.969 179.55 311.698 179.829 311.374 180.058C311.05 180.287 310.668 180.429 310.229 180.485ZM310.339 179.455C310.672 179.413 310.983 179.289 311.272 179.083C311.566 178.877 311.795 178.622 311.959 178.319L311.754 176.694C311.095 176.801 310.566 176.933 310.167 177.092C309.773 177.25 309.495 177.447 309.332 177.684C309.169 177.921 309.109 178.209 309.152 178.546C309.198 178.912 309.328 179.166 309.544 179.308C309.764 179.445 310.028 179.494 310.339 179.455ZM318.583 179.431C317.814 179.528 317.149 179.454 316.587 179.21C316.028 178.961 315.582 178.589 315.247 178.095C314.915 177.596 314.709 177.022 314.627 176.374C314.542 175.698 314.593 175.073 314.779 174.499C314.97 173.925 315.312 173.447 315.804 173.065C316.297 172.683 316.958 172.44 317.787 172.335C318.143 172.29 318.484 172.285 318.808 172.319C319.136 172.348 319.433 172.41 319.699 172.503L319.643 173.625C319.373 173.537 319.09 173.476 318.794 173.443C318.503 173.409 318.205 173.411 317.899 173.45C317.149 173.544 316.604 173.829 316.264 174.305C315.924 174.781 315.802 175.398 315.898 176.157C315.992 176.898 316.254 177.469 316.686 177.871C317.118 178.273 317.718 178.426 318.486 178.329C318.801 178.289 319.097 178.214 319.375 178.104C319.657 177.993 319.922 177.856 320.17 177.693L320.463 178.672C320.294 178.825 320.038 178.977 319.695 179.129C319.352 179.28 318.981 179.381 318.583 179.431ZM324.251 178.716C323.821 178.77 323.466 178.735 323.187 178.611C322.908 178.486 322.693 178.308 322.541 178.078C322.394 177.843 322.303 177.588 322.269 177.315L321.72 172.968L320.553 173.115L320.542 172.129L321.598 171.995L321.386 170.315L322.62 170.032L322.848 171.838L324.639 171.612L324.762 172.584L322.97 172.81L323.422 176.394C323.477 176.829 323.542 177.14 323.618 177.329C323.693 177.517 323.834 177.623 324.039 177.649C324.249 177.675 324.579 177.659 325.028 177.602L325.348 177.562L325.377 178.574L324.251 178.716Z" fill="#A5A3F1"/>
</g>
<ellipse cx="171.759" cy="284.553" rx="30.5" ry="4" transform="rotate(-6.74112 171.759 284.553)" fill="#A5A3F1" fill-opacity="0.38"/>
<ellipse cx="173.345" cy="287.104" rx="8" ry="3" transform="rotate(-8.1541 173.345 287.104)" fill="#D9D9D9"/>
<g filter="url(#filter4_d_185_74)">
<path d="M153.394 282.439L152.168 272.716L153.488 272.549L153.994 276.564L158.939 275.94L158.432 271.926L159.752 271.759L160.978 281.482L159.659 281.649L159.096 277.19L154.152 277.814L154.714 282.272L153.394 282.439ZM165.271 280.941L164.195 272.412L161.362 272.77L161.211 271.575L168.198 270.694L168.348 271.888L165.515 272.246L166.591 280.774L165.271 280.941ZM170.075 280.335L170.154 270.447L171.279 270.305L174.443 274.803L176.363 269.664L177.502 269.52L180.02 279.08L178.631 279.256L176.644 271.449L176.999 271.461L174.784 277.398L171.109 272.203L171.45 272.104L171.464 280.16L170.075 280.335ZM181.862 278.848L180.636 269.125L181.955 268.959L183.031 277.487L187.49 276.925L187.641 278.119L181.862 278.848Z" fill="#A5A3F1"/>
</g>
<ellipse cx="439.759" cy="241.553" rx="30.5" ry="4" transform="rotate(-6.74112 439.759 241.553)" fill="#A5A3F1" fill-opacity="0.38"/>
<ellipse cx="441.345" cy="244.104" rx="8" ry="3" transform="rotate(-8.1541 441.345 244.104)" fill="#D9D9D9"/>
<g filter="url(#filter5_d_185_74)">
<path d="M417.727 238.913L416.5 229.19L417.931 229.009L423.641 235.683L422.723 228.405L424.056 228.237L425.283 237.96L424.158 238.102L418.077 231.065L419.046 238.746L417.727 238.913ZM430.181 237.483C429.468 237.573 428.84 237.492 428.295 237.241C427.755 236.985 427.317 236.607 426.981 236.109C426.65 235.605 426.442 235.024 426.359 234.367C426.277 233.709 426.333 233.098 426.53 232.532C426.731 231.961 427.062 231.487 427.522 231.109C427.986 230.726 428.575 230.489 429.288 230.399C429.996 230.31 430.623 230.393 431.168 230.649C431.712 230.9 432.15 231.277 432.482 231.781C432.818 232.28 433.027 232.858 433.11 233.515C433.193 234.173 433.134 234.787 432.933 235.358C432.736 235.924 432.406 236.398 431.942 236.781C431.477 237.16 430.89 237.394 430.181 237.483ZM430.041 236.372C430.717 236.287 431.209 236.008 431.516 235.537C431.823 235.06 431.928 234.44 431.832 233.676C431.736 232.913 431.48 232.34 431.065 231.96C430.65 231.575 430.104 231.425 429.428 231.51C428.757 231.595 428.265 231.876 427.954 232.352C427.647 232.824 427.541 233.442 427.637 234.206C427.734 234.97 427.99 235.544 428.405 235.929C428.825 236.309 429.37 236.456 430.041 236.372ZM437.679 236.537C437.101 236.61 436.558 236.519 436.05 236.263C435.543 236.007 435.117 235.63 434.772 235.133C434.431 234.635 434.22 234.057 434.137 233.4C434.058 232.775 434.109 232.176 434.291 231.602C434.477 231.029 434.781 230.548 435.203 230.161C435.624 229.769 436.152 229.533 436.786 229.453C437.24 229.396 437.69 229.44 438.136 229.586C438.587 229.727 438.973 230.01 439.294 230.435L439.053 230.649L438.431 225.718L439.681 225.56L440.995 235.978L439.884 236.118L439.466 234.703L439.813 234.885C439.671 235.359 439.401 235.739 439.005 236.024C438.607 236.305 438.166 236.476 437.679 236.537ZM437.761 235.398C438.076 235.358 438.376 235.238 438.661 235.038C438.951 234.836 439.173 234.547 439.328 234.17C439.487 233.788 439.53 233.308 439.457 232.729C439.389 232.192 439.23 231.755 438.981 231.42C438.736 231.079 438.447 230.838 438.114 230.697C437.785 230.55 437.463 230.497 437.148 230.536C436.722 230.59 436.37 230.743 436.091 230.994C435.812 231.246 435.615 231.567 435.5 231.958C435.384 232.344 435.356 232.771 435.415 233.239C435.47 233.679 435.602 234.071 435.81 234.416C436.018 234.762 436.289 235.026 436.623 235.21C436.956 235.389 437.335 235.452 437.761 235.398ZM446.092 235.476C445.291 235.577 444.597 235.498 444.009 235.238C443.421 234.978 442.952 234.595 442.601 234.089C442.255 233.578 442.04 232.996 441.958 232.343C441.878 231.709 441.934 231.111 442.127 230.551C442.324 229.989 442.651 229.52 443.106 229.143C443.566 228.76 444.148 228.525 444.852 228.436C445.416 228.365 445.933 228.415 446.402 228.586C446.874 228.752 447.262 229.035 447.567 229.434C447.875 229.828 448.068 230.33 448.145 230.941C448.157 231.039 448.166 231.146 448.171 231.263C448.181 231.374 448.181 231.492 448.174 231.615L443.243 232.237C443.382 232.859 443.595 233.331 443.88 233.653C444.165 233.974 444.499 234.184 444.883 234.281C445.267 234.378 445.674 234.4 446.105 234.346C446.42 234.306 446.744 234.232 447.079 234.124C447.413 234.016 447.725 233.873 448.013 233.696L448.304 234.661C448.054 234.81 447.747 234.969 447.383 235.137C447.018 235.3 446.588 235.414 446.092 235.476ZM443.245 231.362L446.829 230.91C446.788 230.59 446.693 230.32 446.543 230.099C446.393 229.878 446.187 229.721 445.926 229.627C445.664 229.528 445.344 229.503 444.964 229.551C444.408 229.621 443.998 229.814 443.732 230.129C443.47 230.44 443.308 230.851 443.245 231.362ZM449.905 234.854L449.719 233.382L451.219 233.192L451.405 234.665L449.905 234.854ZM452.634 237.925L452.375 236.984C452.644 236.921 452.846 236.842 452.979 236.745C453.118 236.652 453.203 236.508 453.235 236.311C453.267 236.114 453.259 235.833 453.213 235.467L452.227 227.647L453.477 227.489L454.523 235.781C454.578 236.217 454.526 236.571 454.368 236.845C454.214 237.119 454.013 237.33 453.763 237.479C453.514 237.628 453.274 237.736 453.042 237.803L452.634 237.925ZM452.034 226.119L451.859 224.73L453.109 224.572L453.284 225.961L452.034 226.119ZM458.116 233.959C457.514 234.035 457.005 234.027 456.589 233.933C456.177 233.839 455.883 233.747 455.707 233.656L455.708 232.429C455.872 232.54 456.152 232.655 456.548 232.774C456.944 232.894 457.402 232.921 457.92 232.855C458.36 232.8 458.686 232.683 458.899 232.506C459.117 232.328 459.208 232.105 459.175 231.836C459.145 231.6 459.045 231.42 458.874 231.296C458.707 231.166 458.512 231.073 458.288 231.017C458.069 230.955 457.863 230.91 457.671 230.883C457.351 230.839 457.016 230.775 456.667 230.692C456.322 230.604 456.02 230.447 455.761 230.221C455.502 229.995 455.343 229.653 455.285 229.194C455.242 228.847 455.283 228.508 455.411 228.176C455.538 227.841 455.777 227.552 456.127 227.31C456.478 227.068 456.963 226.908 457.584 226.83C458.037 226.773 458.412 226.775 458.706 226.837C459.005 226.893 459.265 226.961 459.487 227.041L459.478 228.2C459.258 228.058 459.008 227.946 458.73 227.864C458.451 227.781 458.12 227.764 457.736 227.813C457.347 227.862 457.039 227.976 456.812 228.155C456.585 228.329 456.492 228.576 456.532 228.896C456.572 229.215 456.73 229.426 457.007 229.527C457.287 229.628 457.704 229.726 458.257 229.821C458.43 229.846 458.63 229.889 458.859 229.95C459.092 230.01 459.323 230.101 459.55 230.223C459.777 230.344 459.973 230.517 460.137 230.741C460.306 230.96 460.413 231.247 460.458 231.604C460.496 231.905 460.463 232.222 460.359 232.555C460.254 232.883 460.028 233.177 459.68 233.438C459.332 233.698 458.811 233.872 458.116 233.959Z" fill="#A5A3F1"/>
</g>
<ellipse cx="85.7587" cy="284.553" rx="30.5" ry="4" transform="rotate(-6.74112 85.7587 284.553)" fill="#A5A3F1" fill-opacity="0.38"/>
<ellipse cx="87.3446" cy="287.104" rx="8" ry="3" transform="rotate(-8.1541 87.3446 287.104)" fill="#D9D9D9"/>
<g filter="url(#filter6_d_185_74)">
<path d="M68.4956 283.551C67.5835 283.666 66.807 283.588 66.1659 283.316C65.5289 283.039 65.0239 282.597 64.651 281.99C64.2776 281.379 64.0348 280.629 63.9227 279.74L63.2166 274.142L64.5361 273.975L65.1967 279.212C65.2527 279.656 65.3418 280.083 65.4638 280.491C65.5858 280.899 65.7601 281.255 65.9868 281.561C66.2181 281.865 66.5243 282.093 66.9053 282.242C67.291 282.391 67.7709 282.429 68.345 282.357C68.9237 282.284 69.3791 282.128 69.7111 281.888C70.043 281.649 70.2809 281.353 70.4246 281.001C70.5724 280.644 70.6547 280.252 70.6716 279.827C70.6885 279.401 70.6692 278.969 70.6137 278.529L69.9532 273.292L71.2728 273.126L71.9788 278.723C72.091 279.612 72.0421 280.399 71.8321 281.084C71.6216 281.765 71.2399 282.318 70.6871 282.746C70.1382 283.168 69.4078 283.436 68.4956 283.551ZM74.7443 282.566L73.5178 272.843L74.8374 272.676L76.0638 282.399L74.7443 282.566ZM77.3223 283.44L79.6695 272.067L80.989 271.9L78.6418 283.273L77.3223 283.44ZM86.9937 281.218C86.0816 281.333 85.305 281.255 84.6639 280.983C84.0269 280.706 83.5219 280.264 83.1491 279.657C82.7756 279.045 82.5328 278.295 82.4207 277.406L81.7146 271.809L83.0342 271.642L83.6947 276.879C83.7508 277.323 83.8398 277.749 83.9618 278.157C84.0838 278.565 84.2582 278.922 84.4848 279.227C84.7161 279.532 85.0223 279.759 85.4033 279.909C85.789 280.058 86.2689 280.096 86.843 280.023C87.4217 279.95 87.8771 279.794 88.2091 279.555C88.5411 279.315 88.7789 279.02 88.9227 278.668C89.0704 278.31 89.1528 277.919 89.1697 277.493C89.1866 277.068 89.1673 276.635 89.1118 276.195L88.4513 270.959L89.7708 270.792L90.4769 276.39C90.589 277.279 90.5401 278.066 90.3302 278.751C90.1197 279.431 89.738 279.985 89.1851 280.412C88.6363 280.834 87.9058 281.103 86.9937 281.218ZM92.1867 280.365L94.874 275.045L91.0158 270.635L92.5437 270.443L95.4943 273.81L97.5024 269.817L99.0303 269.624L96.4019 274.853L100.312 279.34L98.7844 279.533L95.7816 276.088L93.7146 280.173L92.1867 280.365Z" fill="#A5A3F1"/>
</g>
<ellipse cx="351.759" cy="258.553" rx="30.5" ry="4" transform="rotate(-6.74112 351.759 258.553)" fill="#A5A3F1" fill-opacity="0.38"/>
<ellipse cx="353.345" cy="261.104" rx="8" ry="3" transform="rotate(-8.1541 353.345 261.104)" fill="#D9D9D9"/>
<g filter="url(#filter7_d_185_74)">
<path d="M341.779 244.929C341.251 244.996 340.786 245.148 340.383 245.387C339.979 245.617 339.651 245.926 339.4 246.316C339.146 246.696 338.973 247.146 338.878 247.666C338.783 248.176 338.774 248.742 338.852 249.362C338.955 250.177 339.17 250.87 339.496 251.44C339.831 252.009 340.269 252.424 340.81 252.685C341.36 252.945 342.015 253.027 342.774 252.931C343.209 252.877 343.617 252.787 343.996 252.664C344.376 252.541 344.744 252.401 345.1 252.243L345.237 253.326C344.884 253.512 344.512 253.662 344.122 253.777C343.742 253.891 343.278 253.983 342.732 254.051C341.722 254.179 340.854 254.077 340.125 253.745C339.396 253.414 338.812 252.885 338.373 252.16C337.943 251.434 337.662 250.552 337.531 249.515C337.437 248.765 337.452 248.067 337.577 247.42C337.712 246.773 337.95 246.197 338.291 245.694C338.641 245.188 339.097 244.778 339.66 244.463C340.221 244.138 340.886 243.927 341.654 243.83C342.163 243.766 342.661 243.755 343.146 243.797C343.631 243.839 344.07 243.93 344.464 244.068L344.097 245.187C343.774 245.087 343.416 245.005 343.022 244.942C342.638 244.877 342.223 244.873 341.779 244.929ZM350.14 253.173C349.737 253.224 349.33 253.245 348.92 253.236C348.51 253.226 348.127 253.197 347.773 253.147C347.418 253.093 347.121 253.028 346.88 252.95L346.884 251.524C347.149 251.613 347.466 251.7 347.834 251.785C348.207 251.87 348.605 251.93 349.028 251.966C349.451 252.002 349.873 251.994 350.295 251.94C350.92 251.862 351.401 251.686 351.738 251.413C352.079 251.134 352.219 250.752 352.158 250.266C352.112 249.9 351.982 249.613 351.767 249.405C351.552 249.192 351.247 249.026 350.851 248.907C350.459 248.787 349.973 248.679 349.392 248.583C348.839 248.493 348.325 248.37 347.849 248.213C347.373 248.052 346.975 247.808 346.656 247.482C346.342 247.15 346.146 246.683 346.07 246.081C346.005 245.567 346.08 245.097 346.294 244.67C346.513 244.238 346.865 243.878 347.351 243.591C347.841 243.304 348.462 243.112 349.212 243.018C349.851 242.937 350.445 242.933 350.995 243.005C351.55 243.076 352.011 243.173 352.379 243.296L352.417 244.716C351.85 244.468 351.317 244.307 350.818 244.233C350.325 244.159 349.821 244.155 349.307 244.219C348.737 244.291 348.278 244.457 347.93 244.718C347.587 244.977 347.445 245.348 347.506 245.829C347.547 246.153 347.664 246.409 347.857 246.597C348.049 246.779 348.319 246.924 348.667 247.031C349.013 247.133 349.442 247.227 349.951 247.313C350.653 247.432 351.263 247.592 351.783 247.795C352.302 247.993 352.715 248.267 353.023 248.619C353.33 248.966 353.519 249.422 353.59 249.987C353.643 250.403 353.611 250.788 353.496 251.142C353.381 251.495 353.18 251.809 352.895 252.085C352.61 252.361 352.237 252.591 351.776 252.777C351.32 252.961 350.774 253.093 350.14 253.173ZM358.39 252.133C357.987 252.184 357.581 252.204 357.17 252.195C356.76 252.186 356.378 252.156 356.023 252.107C355.669 252.053 355.371 251.987 355.131 251.909L355.134 250.483C355.399 250.572 355.716 250.659 356.084 250.744C356.457 250.829 356.855 250.889 357.278 250.925C357.702 250.961 358.124 250.953 358.545 250.9C359.17 250.821 359.651 250.645 359.989 250.372C360.33 250.094 360.47 249.712 360.408 249.225C360.362 248.86 360.232 248.573 360.018 248.365C359.803 248.152 359.497 247.986 359.101 247.866C358.71 247.746 358.223 247.638 357.642 247.542C357.09 247.452 356.576 247.329 356.1 247.172C355.623 247.012 355.225 246.768 354.907 246.441C354.592 246.109 354.397 245.642 354.321 245.04C354.256 244.526 354.331 244.056 354.545 243.629C354.763 243.197 355.115 242.838 355.601 242.551C356.092 242.263 356.712 242.072 357.462 241.977C358.101 241.897 358.695 241.892 359.245 241.964C359.8 242.035 360.261 242.132 360.63 242.255L360.668 243.675C360.1 243.427 359.567 243.266 359.069 243.193C358.575 243.118 358.071 243.114 357.557 243.179C356.988 243.251 356.529 243.417 356.181 243.677C355.837 243.937 355.696 244.307 355.757 244.789C355.797 245.113 355.914 245.368 356.107 245.556C356.3 245.739 356.57 245.883 356.917 245.99C357.264 246.092 357.692 246.186 358.201 246.272C358.903 246.391 359.514 246.551 360.033 246.754C360.552 246.952 360.965 247.227 361.273 247.578C361.58 247.925 361.769 248.381 361.841 248.946C361.893 249.363 361.862 249.748 361.746 250.101C361.631 250.454 361.431 250.769 361.146 251.044C360.861 251.32 360.488 251.551 360.026 251.736C359.57 251.921 359.025 252.053 358.39 252.133Z" fill="#A5A3F1"/>
</g>
<defs>
<filter id="filter0_d_185_74" x="146.428" y="154.342" width="68.2373" height="28.6656" filterUnits="userSpaceOnUse" color-interpolation-filters="sRGB">
<feFlood flood-opacity="0" result="BackgroundImageFix"/>
<feColorMatrix in="SourceAlpha" type="matrix" values="0 0 0 0 0 0 0 0 0 0 0 0 0 0 0 0 0 0 127 0" result="hardAlpha"/>
<feOffset dy="2"/>
<feGaussianBlur stdDeviation="2"/>
<feComposite in2="hardAlpha" operator="out"/>
<feColorMatrix type="matrix" values="0 0 0 0 0 0 0 0 0 0 0 0 0 0 0 0 0 0 0.15 0"/>
<feBlend mode="normal" in2="BackgroundImageFix" result="effect1_dropShadow_185_74"/>
<feBlend mode="normal" in="SourceGraphic" in2="effect1_dropShadow_185_74" result="shape"/>
</filter>
<filter id="filter1_d_185_74" x="209.241" y="220.501" width="72.4443" height="29.1964" filterUnits="userSpaceOnUse" color-interpolation-filters="sRGB">
<feFlood flood-opacity="0" result="BackgroundImageFix"/>
<feColorMatrix in="SourceAlpha" type="matrix" values="0 0 0 0 0 0 0 0 0 0 0 0 0 0 0 0 0 0 127 0" result="hardAlpha"/>
<feOffset dy="4"/>
<feGaussianBlur stdDeviation="2"/>
<feComposite in2="hardAlpha" operator="out"/>
<feColorMatrix type="matrix" values="0 0 0 0 0 0 0 0 0 0 0 0 0 0 0 0 0 0 0.15 0"/>
<feBlend mode="normal" in2="BackgroundImageFix" result="effect1_dropShadow_185_74"/>
<feBlend mode="normal" in="SourceGraphic" in2="effect1_dropShadow_185_74" result="shape"/>
</filter>
<filter id="filter2_d_185_74" x="232.77" y="323.567" width="73.1396" height="29.7761" filterUnits="userSpaceOnUse" color-interpolation-filters="sRGB">
<feFlood flood-opacity="0" result="BackgroundImageFix"/>
<feColorMatrix in="SourceAlpha" type="matrix" values="0 0 0 0 0 0 0 0 0 0 0 0 0 0 0 0 0 0 127 0" result="hardAlpha"/>
<feOffset dy="4"/>
<feGaussianBlur stdDeviation="2"/>
<feComposite in2="hardAlpha" operator="out"/>
<feColorMatrix type="matrix" values="0 0 0 0 0 0 0 0 0 0 0 0 0 0 0 0 0 0 0.15 0"/>
<feBlend mode="normal" in2="BackgroundImageFix" result="effect1_dropShadow_185_74"/>
<feBlend mode="normal" in="SourceGraphic" in2="effect1_dropShadow_185_74" result="shape"/>
</filter>
<filter id="filter3_d_185_74" x="288.168" y="168.695" width="41.3477" height="21.9113" filterUnits="userSpaceOnUse" color-interpolation-filters="sRGB">
<feFlood flood-opacity="0" result="BackgroundImageFix"/>
<feColorMatrix in="SourceAlpha" type="matrix" values="0 0 0 0 0 0 0 0 0 0 0 0 0 0 0 0 0 0 127 0" result="hardAlpha"/>
<feOffset dy="4"/>
<feGaussianBlur stdDeviation="2"/>
<feComposite in2="hardAlpha" operator="out"/>
<feColorMatrix type="matrix" values="0 0 0 0 0 0 0 0 0 0 0 0 0 0 0 0 0 0 0.15 0"/>
<feBlend mode="normal" in2="BackgroundImageFix" result="effect1_dropShadow_185_74"/>
<feBlend mode="normal" in="SourceGraphic" in2="effect1_dropShadow_185_74" result="shape"/>
</filter>
<filter id="filter4_d_185_74" x="148.168" y="266.396" width="43.4727" height="22.0427" filterUnits="userSpaceOnUse" color-interpolation-filters="sRGB">
<feFlood flood-opacity="0" result="BackgroundImageFix"/>
<feColorMatrix in="SourceAlpha" type="matrix" values="0 0 0 0 0 0 0 0 0 0 0 0 0 0 0 0 0 0 127 0" result="hardAlpha"/>
<feOffset dy="2"/>
<feGaussianBlur stdDeviation="2"/>
<feComposite in2="hardAlpha" operator="out"/>
<feColorMatrix type="matrix" values="0 0 0 0 0 0 0 0 0 0 0 0 0 0 0 0 0 0 0.15 0"/>
<feBlend mode="normal" in2="BackgroundImageFix" result="effect1_dropShadow_185_74"/>
<feBlend mode="normal" in="SourceGraphic" in2="effect1_dropShadow_185_74" result="shape"/>
</filter>
<filter id="filter5_d_185_74" x="412.413" y="223.075" width="52.7075" height="27.1989" filterUnits="userSpaceOnUse" color-interpolation-filters="sRGB">
<feFlood flood-opacity="0" result="BackgroundImageFix"/>
<feColorMatrix in="SourceAlpha" type="matrix" values="0 0 0 0 0 0 0 0 0 0 0 0 0 0 0 0 0 0 127 0" result="hardAlpha"/>
<feOffset dy="4"/>
<feGaussianBlur stdDeviation="2"/>
<feComposite in2="hardAlpha" operator="out"/>
<feColorMatrix type="matrix" values="0 0 0 0 0 0 0 0 0 0 0 0 0 0 0 0 0 0 0.15 0"/>
<feBlend mode="normal" in2="BackgroundImageFix" result="effect1_dropShadow_185_74"/>
<feBlend mode="normal" in="SourceGraphic" in2="effect1_dropShadow_185_74" result="shape"/>
</filter>
<filter id="filter6_d_185_74" x="59.2166" y="269.617" width="45.2446" height="23.428" filterUnits="userSpaceOnUse" color-interpolation-filters="sRGB">
<feFlood flood-opacity="0" result="BackgroundImageFix"/>
<feColorMatrix in="SourceAlpha" type="matrix" values="0 0 0 0 0 0 0 0 0 0 0 0 0 0 0 0 0 0 127 0" result="hardAlpha"/>
<feOffset dy="4"/>
<feGaussianBlur stdDeviation="2"/>
<feComposite in2="hardAlpha" operator="out"/>
<feColorMatrix type="matrix" values="0 0 0 0 0 0 0 0 0 0 0 0 0 0 0 0 0 0 0.15 0"/>
<feBlend mode="normal" in2="BackgroundImageFix" result="effect1_dropShadow_185_74"/>
<feBlend mode="normal" in="SourceGraphic" in2="effect1_dropShadow_185_74" result="shape"/>
</filter>
<filter id="filter7_d_185_74" x="332.89" y="241.404" width="33.292" height="21.278" filterUnits="userSpaceOnUse" color-interpolation-filters="sRGB">
<feFlood flood-opacity="0" result="BackgroundImageFix"/>
<feColorMatrix in="SourceAlpha" type="matrix" values="0 0 0 0 0 0 0 0 0 0 0 0 0 0 0 0 0 0 127 0" result="hardAlpha"/>
<feOffset dy="4"/>
<feGaussianBlur stdDeviation="2"/>
<feComposite in2="hardAlpha" operator="out"/>
<feColorMatrix type="matrix" values="0 0 0 0 0 0 0 0 0 0 0 0 0 0 0 0 0 0 0.15 0"/>
<feBlend mode="normal" in2="BackgroundImageFix" result="effect1_dropShadow_185_74"/>
<feBlend mode="normal" in="SourceGraphic" in2="effect1_dropShadow_185_74" result="shape"/>
</filter>
<linearGradient id="paint0_linear_185_74" x1="238.896" y1="48.2197" x2="249.493" y2="66.5738" gradientUnits="userSpaceOnUse">
<stop offset="0.135" stop-color="#DF609D"/>
<stop offset="1" stop-color="#A3ABF1" stop-opacity="0"/>
</linearGradient>
<linearGradient id="paint1_linear_185_74" x1="211.19" y1="98.6872" x2="267.01" y2="371.316" gradientUnits="userSpaceOnUse">
<stop offset="0.175" stop-color="#161231"/>
<stop offset="0.78" stop-color="#A3ABF1"/>
</linearGradient>
<linearGradient id="paint2_linear_185_74" x1="253.091" y1="95.1813" x2="253.091" y2="374.181" gradientUnits="userSpaceOnUse">
<stop stop-color="#4C5EFE"/>
<stop offset="1" stop-color="#9B5FDA"/>
</linearGradient>
<linearGradient id="paint3_linear_185_74" x1="268.935" y1="216.46" x2="278.521" y2="292.453" gradientUnits="userSpaceOnUse">
<stop stop-color="#4C5EFE"/>
<stop offset="1" stop-color="#9B5FDA"/>
</linearGradient>
<linearGradient id="paint4_linear_185_74" x1="218.259" y1="241.553" x2="279.259" y2="241.553" gradientUnits="userSpaceOnUse">
<stop stop-color="#9B5FDA"/>
<stop offset="1" stop-color="#5F5E8B"/>
</linearGradient>
<linearGradient id="paint5_linear_185_74" x1="251.041" y1="246.261" x2="253.368" y2="255.562" gradientUnits="userSpaceOnUse">
<stop stop-color="#A3ABF1" stop-opacity="0"/>
<stop offset="0.5" stop-color="#A3ABF1"/>
<stop offset="1" stop-color="#9B5FDA"/>
</linearGradient>
<linearGradient id="paint6_linear_185_74" x1="315.708" y1="199.345" x2="318.941" y2="212.263" gradientUnits="userSpaceOnUse">
<stop offset="0.135" stop-color="#DF609D"/>
<stop offset="1" stop-color="#A3ABF1" stop-opacity="0"/>
</linearGradient>
</defs>
</svg>
