<svg width="24" height="24" viewBox="0 0 24 24" fill="none" xmlns="http://www.w3.org/2000/svg">
<path d="M12.0011 0C8.74209 0 8.33309 0.0142504 7.05307 0.072501C5.77556 0.131002 4.90355 0.333254 4.14054 0.630007C3.35128 0.93651 2.68178 1.34651 2.01477 2.01377C1.34726 2.68078 0.937259 3.35028 0.629756 4.13929C0.332253 4.90255 0.129751 5.77481 0.0722506 7.05182C0.015 8.33184 0 8.74109 0 12.0001C0 15.2592 0.0145004 15.6669 0.072501 16.9469C0.131252 18.2244 0.333504 19.0964 0.630007 19.8595C0.93676 20.6487 1.34676 21.3182 2.01402 21.9852C2.68078 22.6527 3.35028 23.0637 4.13904 23.3702C4.90255 23.667 5.77481 23.8692 7.05207 23.9277C8.33209 23.986 8.74084 24.0002 11.9996 24.0002C15.2589 24.0002 15.6667 23.986 16.9467 23.9277C18.2242 23.8692 19.0972 23.667 19.8607 23.3702C20.6497 23.0637 21.3182 22.6527 21.985 21.9852C22.6525 21.3182 23.0625 20.6487 23.37 19.8597C23.665 19.0964 23.8675 18.2242 23.9275 16.9472C23.985 15.6672 24 15.2592 24 12.0001C24 8.74109 23.985 8.33209 23.9275 7.05207C23.8675 5.77456 23.665 4.90255 23.37 4.13954C23.0625 3.35028 22.6525 2.68078 21.985 2.01377C21.3175 1.34626 20.65 0.93626 19.86 0.630007C19.0949 0.333254 18.2224 0.131002 16.9449 0.072501C15.6649 0.0142504 15.2574 0 11.9974 0H12.0011ZM10.9246 2.16252C11.2441 2.16202 11.6006 2.16252 12.0011 2.16252C15.2052 2.16252 15.5849 2.17402 16.8502 2.23152C18.0202 2.28502 18.6552 2.48053 19.0782 2.64478C19.6382 2.86228 20.0375 3.12228 20.4572 3.54229C20.8772 3.96229 21.1372 4.3623 21.3552 4.9223C21.5195 5.34481 21.7152 5.97981 21.7685 7.14982C21.826 8.41484 21.8385 8.79484 21.8385 11.9974C21.8385 15.1999 21.826 15.5799 21.7685 16.8449C21.715 18.0149 21.5195 18.6499 21.3552 19.0724C21.1377 19.6325 20.8772 20.0312 20.4572 20.451C20.0372 20.871 19.6385 21.131 19.0782 21.3485C18.6557 21.5135 18.0202 21.7085 16.8502 21.762C15.5852 21.8195 15.2052 21.832 12.0011 21.832C8.79684 21.832 8.41709 21.8195 7.15207 21.762C5.98206 21.708 5.34706 21.5125 4.9238 21.3482C4.3638 21.1307 3.96379 20.8707 3.54379 20.4507C3.12378 20.0307 2.86378 19.6317 2.64578 19.0714C2.48153 18.6489 2.28577 18.0139 2.23252 16.8439C2.17502 15.5789 2.16352 15.1989 2.16352 11.9944C2.16352 8.78984 2.17502 8.41184 2.23252 7.14682C2.28602 5.97681 2.48153 5.3418 2.64578 4.9188C2.86328 4.3588 3.12378 3.95879 3.54379 3.53879C3.96379 3.11878 4.3638 2.85878 4.9238 2.64078C5.34681 2.47578 5.98206 2.28077 7.15207 2.22702C8.25909 2.17702 8.68809 2.16202 10.9246 2.15952V2.16252ZM18.4067 4.15504C17.6117 4.15504 16.9667 4.7993 16.9667 5.59456C16.9667 6.38957 17.6117 7.03457 18.4067 7.03457C19.2017 7.03457 19.8467 6.38957 19.8467 5.59456C19.8467 4.79955 19.2017 4.15454 18.4067 4.15454V4.15504ZM12.0011 5.83756C8.59784 5.83756 5.83856 8.59684 5.83856 12.0001C5.83856 15.4034 8.59784 18.1614 12.0011 18.1614C15.4044 18.1614 18.1627 15.4034 18.1627 12.0001C18.1627 8.59684 15.4042 5.83756 12.0009 5.83756H12.0011ZM12.0011 8.00008C14.2101 8.00008 16.0012 9.79085 16.0012 12.0001C16.0012 14.2091 14.2101 16.0002 12.0011 16.0002C9.79185 16.0002 8.00108 14.2091 8.00108 12.0001C8.00108 9.79085 9.79185 8.00008 12.0011 8.00008Z" fill="#A5A3F1"/>
</svg>
